<svg width="100" height="100" viewBox="0 0 100 100" fill="none" xmlns="http://www.w3.org/2000/svg">
<rect width="100" height="100" rx="50" fill="#E1F7F9"/>
<path d="M38 46H46" stroke="#00A8B8" stroke-width="2.6" stroke-linecap="square"/>
<path d="M67.6667 48H62.4615C58.8929 48 56 50.6863 56 54C56 57.3137 58.8929 60 62.4615 60H67.6667C67.8333 60 67.9167 60 67.987 59.9957C69.0656 59.9301 69.9247 59.1323 69.9954 58.1308C70 58.0655 70 57.9881 70 57.8333V50.1667C70 50.0119 70 49.9345 69.9954 49.8692C69.9247 48.8677 69.0656 48.0699 67.987 48.0043C67.9167 48 67.8333 48 67.6667 48Z" stroke="#00A8B8" stroke-width="2.6" stroke-linecap="square"/>
<path d="M67.9301 48C67.7746 44.2554 67.2732 41.9595 65.6569 40.3431C63.3137 38 59.5425 38 52 38H46C38.4575 38 34.6863 38 32.3431 40.3431C30 42.6863 30 46.4575 30 54C30 61.5425 30 65.3137 32.3431 67.6569C34.6863 70 38.4575 70 46 70H52C59.5425 70 63.3137 70 65.6569 67.6569C67.2732 66.0405 67.7746 63.7446 67.9301 60" stroke="#00A8B8" stroke-width="2.6" stroke-linecap="square"/>
<path d="M38 38L45.471 33.0463C47.5749 31.6512 50.4251 31.6512 52.529 33.0463L60 38" stroke="#00A8B8" stroke-width="2.6" stroke-linecap="square"/>
<path d="M61.9825 54H62.0005" stroke="#00A8B8" stroke-width="2.6" stroke-linecap="square"/>
</svg>
