<svg width="100" height="100" viewBox="0 0 100 100" fill="none" xmlns="http://www.w3.org/2000/svg">
<circle cx="50" cy="50" r="50" fill="#E1F7F9"/>
<path d="M50.0013 58C38.4814 58 36.4406 46.5191 36.0791 37.4129C35.9786 34.88 35.9283 33.6135 36.8797 32.4417C37.8311 31.2699 38.9699 31.0777 41.2473 30.6935C43.4955 30.3142 46.4342 30 50.0013 30C53.5684 30 56.5071 30.3142 58.7552 30.6935C61.0327 31.0777 62.1714 31.2699 63.1229 32.4417C64.0743 33.6135 64.024 34.88 63.9234 37.4129C63.5619 46.5191 61.5212 58 50.0013 58Z" stroke="#00A8B8" stroke-width="2.6"/>
<path d="M65 36L66.8972 36.6324C68.8774 37.2925 69.8674 37.6225 70.4337 38.4082C71 39.1938 70.9999 40.2375 70.9999 42.3247L70.9999 42.4697C70.9998 44.1912 70.9998 45.052 70.5854 45.7562C70.1711 46.4604 69.4186 46.8784 67.9138 47.7145L62 51" stroke="#00A8B8" stroke-width="2.6" stroke-linecap="square"/>
<path d="M34.9999 36L33.1026 36.6324C31.1225 37.2925 30.1325 37.6225 29.5662 38.4082C28.9999 39.1938 28.9999 40.2375 29 42.3247L29 42.4697C29.0001 44.1912 29.0001 45.052 29.4145 45.7562C29.8288 46.4604 30.5813 46.8784 32.0861 47.7145L37.9999 51" stroke="#00A8B8" stroke-width="2.6" stroke-linecap="square"/>
<path d="M50 60V64" stroke="#00A8B8" stroke-width="2.6" stroke-linecap="square"/>
<path d="M57 70H43L43.6784 66.6078C43.8654 65.6729 44.6862 65 45.6396 65H54.3604C55.3138 65 56.1346 65.6729 56.3216 66.6078L57 70Z" stroke="#00A8B8" stroke-width="2.6" stroke-linecap="round" stroke-linejoin="round"/>
<path d="M62 70H38" stroke="#00A8B8" stroke-width="2.6" stroke-linecap="square"/>
</svg>
