<svg width="100" height="100" viewBox="0 0 100 100" fill="none" xmlns="http://www.w3.org/2000/svg">
<rect width="100" height="100" rx="50" fill="#E1F7F9"/>
<path d="M44 56H33.5C33.1022 56 32.7206 55.842 32.4393 55.5607C32.158 55.2794 32 54.8978 32 54.5V45.5C32 45.1022 32.158 44.7206 32.4393 44.4393C32.7206 44.158 33.1022 44 33.5 44H44V33.5C44 33.1022 44.158 32.7206 44.4393 32.4393C44.7206 32.158 45.1022 32 45.5 32H54.5C54.8978 32 55.2794 32.158 55.5607 32.4393C55.842 32.7206 56 33.1022 56 33.5V44H66.5C66.8978 44 67.2794 44.158 67.5607 44.4393C67.842 44.7206 68 45.1022 68 45.5V54.5C68 54.8978 67.842 55.2794 67.5607 55.5607C67.2794 55.842 66.8978 56 66.5 56H56V66.5C56 66.8978 55.842 67.2794 55.5607 67.5607C55.2794 67.842 54.8978 68 54.5 68H45.5C45.1022 68 44.7206 67.842 44.4393 67.5607C44.158 67.2794 44 66.8978 44 66.5V56Z" stroke="#00A8B8" stroke-width="2.6" stroke-linecap="round"/>
</svg>
