<svg width="100" height="100" viewBox="0 0 100 100" fill="none" xmlns="http://www.w3.org/2000/svg">
<circle cx="50" cy="50" r="50" fill="#E1F7F9"/>
<path d="M50 59.75C54.1421 59.75 57.5 56.3921 57.5 52.25C57.5 48.1079 54.1421 44.75 50 44.75C45.8579 44.75 42.5 48.1079 42.5 52.25C42.5 56.3921 45.8579 59.75 50 59.75Z" stroke="#00A8B8" stroke-width="2.6" stroke-linecap="round" stroke-linejoin="round"/>
<path d="M62.75 47.75C64.497 47.7471 66.2206 48.1524 67.7831 48.9337C69.3457 49.715 70.7041 50.8506 71.75 52.25" stroke="#00A8B8" stroke-width="2.6" stroke-linecap="square" stroke-linejoin="round"/>
<path d="M28.25 52.25C29.2959 50.8506 30.6543 49.715 32.2169 48.9337C33.7794 48.1524 35.503 47.7471 37.25 47.75" stroke="#00A8B8" stroke-width="2.6" stroke-linecap="square" stroke-linejoin="round"/>
<path d="M39.1992 66.5001C40.187 64.4771 41.7231 62.7723 43.6326 61.5797C45.542 60.3872 47.748 59.7549 49.9992 59.7549C52.2505 59.7549 54.4565 60.3872 56.3659 61.5797C58.2753 62.7723 59.8114 64.4771 60.7992 66.5001" stroke="#00A8B8" stroke-width="2.6" stroke-linecap="square" stroke-linejoin="round"/>
<path d="M37.2483 47.75C36.1095 47.7512 34.9939 47.4282 34.0318 46.8189C33.0697 46.2095 32.3009 45.339 31.8153 44.309C31.3296 43.2789 31.147 42.132 31.289 41.002C31.431 39.8721 31.8915 38.806 32.6169 37.9281C33.3423 37.0502 34.3026 36.3969 35.3855 36.0445C36.4684 35.6921 37.6292 35.6552 38.7323 35.938C39.8354 36.2208 40.8353 36.8117 41.615 37.6417C42.3948 38.4717 42.9223 39.5064 43.1358 40.625" stroke="#00A8B8" stroke-width="2.6" stroke-linecap="square" stroke-linejoin="round"/>
<path d="M56.8633 40.625C57.0768 39.5064 57.6043 38.4717 58.384 37.6417C59.1638 36.8117 60.1636 36.2208 61.2667 35.938C62.3698 35.6552 63.5307 35.6921 64.6136 36.0445C65.6965 36.3969 66.6567 37.0502 67.3821 37.9281C68.1075 38.806 68.5681 39.8721 68.7101 41.002C68.852 42.132 68.6695 43.2789 68.1838 44.309C67.6981 45.339 66.9293 46.2095 65.9673 46.8189C65.0052 47.4282 63.8896 47.7512 62.7508 47.75" stroke="#00A8B8" stroke-width="2.6" stroke-linecap="square" stroke-linejoin="round"/>
</svg>
