<svg width="100" height="100" viewBox="0 0 100 100" fill="none" xmlns="http://www.w3.org/2000/svg">
<rect width="100" height="100" rx="50" fill="#E1F7F9"/>
<path d="M32 70H50M48 38.5041C49.2785 38.175 50.6188 38 52 38C60.8366 38 68 45.1634 68 54C68 60.7148 63.8637 66.4634 58 68.837M37 52H45C45.9293 52 46.394 52 46.7804 52.0769C48.3671 52.3925 49.6075 53.6329 49.9231 55.2196C50 55.606 50 56.0707 50 57C50 57.9293 50 58.394 49.9231 58.7804C49.6075 60.3671 48.3671 61.6075 46.7804 61.9231C46.394 62 45.9293 62 45 62H37C36.0707 62 35.606 62 35.2196 61.9231C33.6329 61.6075 32.3925 60.3671 32.0769 58.7804C32 58.394 32 57.9293 32 57C32 56.0707 32 55.606 32.0769 55.2196C32.3925 53.6329 33.6329 52.3925 35.2196 52.0769C35.606 52 36.0707 52 37 52ZM34 37V52H48V37C48 33.134 44.866 30 41 30C37.134 30 34 33.134 34 37Z" stroke="#00A8B8" stroke-width="2.6" stroke-linecap="square"/>
</svg>
