<svg width="100" height="100" viewBox="0 0 100 100" fill="none" xmlns="http://www.w3.org/2000/svg">
<circle cx="50" cy="50" r="50" fill="#E1F7F9"/>
<path d="M50 68C59.9411 68 68 59.9411 68 50C68 40.0589 59.9411 32 50 32C40.0589 32 32 40.0589 32 50C32 59.9411 40.0589 68 50 68Z" stroke="#00A8B8" stroke-width="2.6" stroke-linecap="round" stroke-linejoin="round"/>
<path d="M66.1615 57.9496L55.9803 51.6871C55.8051 51.5744 55.6061 51.5038 55.399 51.4809L51.1053 50.8996C50.7849 50.8536 50.4584 50.9152 50.1768 51.0746C49.8952 51.2341 49.6744 51.4825 49.549 51.7809L46.9803 57.5371C46.8595 57.8049 46.82 58.1022 46.8667 58.3921C46.9134 58.6821 47.0441 58.952 47.2428 59.1684L50.7678 62.9746C50.9271 63.1497 51.0439 63.3593 51.1089 63.587C51.174 63.8146 51.1856 64.0542 51.1428 64.2871L50.4115 67.9996" stroke="#00A8B8" stroke-width="2.6" stroke-linecap="round" stroke-linejoin="round"/>
<path d="M38.1856 36.4248L36.4981 40.3998C36.3511 40.7527 36.3444 41.1484 36.4794 41.5061L38.6356 47.2436C38.7199 47.4827 38.8641 47.6962 39.0546 47.8636C39.245 48.0311 39.4752 48.1468 39.7231 48.1998L43.7356 49.0623C43.9583 49.1073 44.1675 49.2037 44.3465 49.3436C44.5255 49.4836 44.6694 49.6633 44.7669 49.8686L45.4794 51.3498C45.606 51.6003 45.7987 51.8113 46.0367 51.96C46.2746 52.1087 46.5488 52.1895 46.8294 52.1936H49.3606" stroke="#00A8B8" stroke-width="2.6" stroke-linecap="round" stroke-linejoin="round"/>
<path d="M54.5945 32.5811L56.3383 35.7311C56.4993 36.0272 56.5572 36.3685 56.5029 36.7012C56.4486 37.0338 56.2851 37.339 56.0383 37.5686L50.9945 42.1248C50.9101 42.2054 50.8156 42.2748 50.7133 42.3311L48.407 43.6061C48.1872 43.7227 47.9433 43.7869 47.6945 43.7936H43.682C43.3864 43.7951 43.0977 43.8828 42.8512 44.046C42.6048 44.2092 42.4113 44.4408 42.2945 44.7123L40.7383 48.4061" stroke="#00A8B8" stroke-width="2.6" stroke-linecap="round" stroke-linejoin="round"/>
</svg>
