<svg width="100" height="100" viewBox="0 0 100 100" fill="none" xmlns="http://www.w3.org/2000/svg">
<circle cx="50" cy="50" r="50" fill="#E1F7F9"/>
<path d="M30 54C30 46.4575 30 42.6863 32.3431 40.3431C34.6863 38 38.4575 38 46 38H54C61.5425 38 65.3137 38 67.6569 40.3431C70 42.6863 70 46.4575 70 54C70 61.5425 70 65.3137 67.6569 67.6569C65.3137 70 61.5425 70 54 70H46C38.4575 70 34.6863 70 32.3431 67.6569C30 65.3137 30 61.5425 30 54Z" stroke="#00A8B8" stroke-width="2.6"/>
<path d="M58 38C58 34.2288 58 32.3431 56.8284 31.1716C55.6569 30 53.7712 30 50 30C46.2288 30 44.3431 30 43.1716 31.1716C42 32.3431 42 34.2288 42 38" stroke="#00A8B8" stroke-width="2.6"/>
<path d="M48 56H44.5C44.3674 56 44.2402 55.9473 44.1464 55.8536C44.0527 55.7598 44 55.6326 44 55.5V52.5C44 52.3674 44.0527 52.2402 44.1464 52.1464C44.2402 52.0527 44.3674 52 44.5 52H48V48.5C48 48.3674 48.0527 48.2402 48.1464 48.1464C48.2402 48.0527 48.3674 48 48.5 48H51.5C51.6326 48 51.7598 48.0527 51.8536 48.1464C51.9473 48.2402 52 48.3674 52 48.5V52H55.5C55.6326 52 55.7598 52.0527 55.8536 52.1464C55.9473 52.2402 56 52.3674 56 52.5V55.5C56 55.6326 55.9473 55.7598 55.8536 55.8536C55.7598 55.9473 55.6326 56 55.5 56H52V59.5C52 59.6326 51.9473 59.7598 51.8536 59.8536C51.7598 59.9473 51.6326 60 51.5 60H48.5C48.3674 60 48.2402 59.9473 48.1464 59.8536C48.0527 59.7598 48 59.6326 48 59.5V56Z" stroke="#00A8B8" stroke-width="2" stroke-linecap="round"/>
</svg>
