<svg width="70" height="114" viewBox="0 0 70 114" fill="none" xmlns="http://www.w3.org/2000/svg">
<path d="M28.5098 12.5217C31.9498 12.5217 34.7384 9.71861 34.7384 6.26084C34.7384 2.80307 31.9498 0 28.5098 0C25.0699 0 22.2812 2.80307 22.2812 6.26084C22.2812 9.71861 25.0699 12.5217 28.5098 12.5217Z" fill="#EFEFF0"/>
<path d="M20.6137 28.8828C19.6838 29.6105 18.7976 30.3947 17.9613 31.2353C18.7976 30.3947 19.6838 29.6168 20.6137 28.8828Z" fill="#EFEFF0"/>
<path d="M11.0087 111.936C11.0211 111.973 11.0399 111.998 11.0711 112.023C11.0711 112.023 11.0836 112.03 11.0836 112.036C11.1085 112.055 11.146 112.067 11.1772 112.067C11.1959 112.067 11.2146 112.067 11.2396 112.067C16.5632 110.455 21.8806 108.554 26.9983 106.227C26.9858 105.656 26.9733 105.079 26.9608 104.489C21.9555 107.419 16.6381 109.834 11.1272 111.716C11.0336 111.747 10.9775 111.848 11.0087 111.948V111.936Z" fill="#EFEFF0"/>
<path d="M33.3764 22.3643C34.0941 22.151 34.8181 21.9816 35.5545 21.8875C35.7043 21.875 35.8478 21.875 35.9976 21.875C35.9976 21.875 36.0039 21.875 36.0101 21.875C36.0413 21.875 36.0725 21.875 36.0975 21.875C36.2098 21.875 36.3284 21.875 36.4407 21.8875C36.4907 21.8875 36.5468 21.9001 36.5968 21.9001C36.6904 21.9064 36.784 21.9189 36.8714 21.9314C36.9275 21.9377 36.9837 21.9503 37.0461 21.9565C37.1335 21.9691 37.2209 21.9879 37.302 22.0067C37.3582 22.0193 37.4206 22.0318 37.4768 22.0444C37.5641 22.0632 37.6453 22.0883 37.7326 22.1134C37.7888 22.1322 37.845 22.1447 37.9011 22.1636C37.9885 22.1887 38.0697 22.22 38.157 22.2514C38.2132 22.2702 38.2631 22.289 38.3193 22.3079C38.4129 22.3455 38.5003 22.3831 38.5939 22.427C38.6376 22.4459 38.6813 22.4647 38.725 22.4835C38.8623 22.5462 38.9933 22.6152 39.1244 22.6905C39.2118 22.7407 39.2991 22.7846 39.3928 22.8285C39.4177 22.8411 39.4364 22.8474 39.4614 22.8599C39.5488 22.8975 39.6362 22.9289 39.7235 22.954C39.8109 22.9791 39.8983 22.9979 39.9919 23.0105C40.0169 23.0105 40.0356 23.0167 40.0606 23.0167C40.1479 23.0293 40.2353 23.0356 40.3227 23.0356C40.4163 23.0356 40.5099 23.0293 40.6035 23.0167C40.6223 23.0167 40.641 23.0167 40.6597 23.0105C40.7471 22.9979 40.8344 22.9791 40.9218 22.954C40.9343 22.954 40.953 22.9415 40.9655 22.9415C41.0466 22.9164 41.1278 22.885 41.2027 22.8536C41.2152 22.8536 41.2214 22.8474 41.2339 22.8411C41.315 22.8034 41.3961 22.7595 41.471 22.7156C41.4898 22.7031 41.5022 22.6968 41.521 22.6843C41.5959 22.6341 41.6707 22.5839 41.7394 22.5274C41.7456 22.5211 41.7519 22.5149 41.7644 22.5086C41.8268 22.4584 41.8954 22.3957 41.9516 22.3392C41.9641 22.3267 41.9766 22.3204 41.9828 22.3079C42.0452 22.2451 42.1014 22.1761 42.1576 22.1071C42.17 22.0946 42.1825 22.0757 42.1888 22.0632C42.2949 21.9189 42.3885 21.7558 42.4634 21.5864C42.4696 21.5676 42.4758 21.555 42.4883 21.5362C42.5195 21.4547 42.5507 21.3668 42.5757 21.2853C42.5757 21.2727 42.5819 21.2539 42.5882 21.2414C42.6069 21.1598 42.6256 21.0783 42.6381 20.9904C42.6381 20.9779 42.6381 20.9716 42.6381 20.9591C42.6506 20.8712 42.6506 20.7771 42.6506 20.683C42.6506 20.6642 42.6506 20.6454 42.6506 20.6203C42.6506 20.5262 42.6381 20.4321 42.6256 20.338C42.6256 20.3255 42.6256 20.3129 42.6194 20.3066C42.6007 20.2188 42.5819 20.131 42.557 20.0432C42.557 20.0243 42.5445 20.0118 42.5445 19.993C42.5133 19.8989 42.4758 19.8048 42.4322 19.7107C42.4259 19.6918 42.4134 19.673 42.401 19.6542C42.351 19.5601 42.2949 19.4597 42.2324 19.3656C42.1825 19.2904 42.1263 19.2213 42.0639 19.1523C42.0452 19.1335 42.0265 19.1147 42.0078 19.0896C41.9641 19.0457 41.9204 19.0018 41.8767 18.9641C41.8517 18.9453 41.8268 18.9202 41.8081 18.9014C41.7644 18.8638 41.7144 18.8324 41.6707 18.7948C41.6458 18.7759 41.6208 18.7634 41.5959 18.7446C41.5397 18.7069 41.4835 18.6756 41.4211 18.6442C41.4024 18.6379 41.3899 18.6254 41.3712 18.6191C41.2963 18.5815 41.2214 18.5501 41.1403 18.5187C41.1215 18.5125 41.0966 18.5062 41.0778 18.4999C41.0217 18.4811 40.9593 18.4623 40.9031 18.4434C40.8719 18.4372 40.8469 18.4309 40.8157 18.4246C40.7596 18.4121 40.7034 18.4058 40.6535 18.3933C40.6223 18.3933 40.591 18.387 40.5661 18.3807C40.5037 18.3807 40.4475 18.3744 40.3851 18.3682C40.3601 18.3682 40.3352 18.3682 40.3164 18.3682C40.2166 18.3682 40.1167 18.3744 40.0169 18.3933C39.9919 18.3933 39.9732 18.3995 39.9482 18.4058C39.8546 18.4246 39.761 18.4434 39.6736 18.4685C39.6611 18.4685 39.6549 18.4685 39.6424 18.4748C39.5425 18.5062 39.4489 18.5438 39.3491 18.5877C39.3241 18.6003 39.3054 18.6066 39.2804 18.6191C39.1868 18.6693 39.0932 18.7195 38.9996 18.7822C37.4705 19.7483 35.8478 20.5764 34.1128 20.9653C33.3764 21.1222 32.6524 21.3104 31.9285 21.5174C31.916 21.9628 31.8972 22.4082 31.8848 22.8536C32.3778 22.6717 32.8771 22.5023 33.3764 22.3518V22.3643Z" fill="#EFEFF0"/>
<path d="M47.8317 51.987C42.8326 48.5869 37.1158 46.4916 31.2554 45.2181C31.0058 45.1616 30.7499 45.1114 30.5002 45.0612C29.1272 44.7789 27.7417 44.5405 26.3624 44.3398C26.1065 44.3021 25.8569 44.2708 25.601 44.2331C24.8958 44.139 24.1905 44.0512 23.4853 43.9759C23.3168 43.9508 23.1545 43.932 22.9798 43.9069C22.6427 43.863 22.2932 43.8254 21.9438 43.7814C21.5943 43.7438 21.2448 43.6999 20.889 43.656C20.5333 43.6121 20.1838 43.5619 19.8343 43.5054C19.31 43.4176 18.7983 43.3172 18.299 43.1855C17.3066 42.922 16.3954 42.5393 15.6528 41.9496C14.8726 41.2595 14.4982 40.2056 14.3047 39.1956C14.1549 38.0789 14.3421 36.9748 14.7353 35.9209C14.8664 35.5696 15.0224 35.2245 15.1972 34.8858C15.3719 34.547 15.5654 34.2145 15.7776 33.8946C16.0896 33.4115 16.4391 32.941 16.8074 32.4956C16.9883 32.2761 17.1818 32.0565 17.3691 31.8432C17.5625 31.6299 17.756 31.4291 17.9495 31.2284C18.7858 30.3878 19.672 29.6099 20.6019 28.8759C21.5318 28.1482 22.5054 27.4706 23.5103 26.837C24.0532 26.4983 24.6024 26.1783 25.1641 25.8647C25.1454 25.2687 25.1267 24.6727 25.108 24.083C25.0081 24.1269 24.9083 24.1708 24.8084 24.221C22.5304 25.3063 19.9029 26.7617 17.5563 28.5685C17.0133 28.9825 16.4891 29.4217 15.9835 29.8733C15.478 30.325 14.9974 30.8018 14.5481 31.2911C14.3983 31.4542 14.2485 31.6236 14.105 31.7867C13.8179 32.1192 13.5495 32.4643 13.2936 32.8156C13.1688 32.9912 13.044 33.1669 12.9254 33.3488C12.6883 33.7064 12.4698 34.0765 12.2701 34.4529C11.9705 35.0175 11.7209 35.6009 11.5212 36.1969C11.3215 36.7992 11.1779 37.414 11.0968 38.0476C11.0718 38.2609 11.0469 38.4742 11.0344 38.6875C10.8721 43.3109 13.5308 46.3786 17.7061 47.8278C18.5174 48.1164 19.3225 48.3422 20.1338 48.5304C20.5395 48.6245 20.9389 48.7123 21.3446 48.7939C21.95 48.9131 22.5554 49.0197 23.1608 49.1201C23.9659 49.2518 25.6572 49.5341 25.6946 49.5404C25.9505 49.5843 27.0926 49.8039 27.4172 49.8729C28.397 50.0548 29.3769 50.2869 30.3567 50.563C30.6063 50.632 30.8622 50.7073 31.1119 50.7825C35.4806 52.1062 39.6996 54.3082 43.0635 57.3382C43.5441 57.7711 43.9997 58.2165 44.4428 58.6807C45.5474 59.8413 46.5273 61.1085 47.3511 62.4761C47.6819 63.0219 47.9877 63.5865 48.2685 64.17C48.4058 64.4585 48.5431 64.7534 48.668 65.0545C48.7928 65.3556 48.9114 65.6567 49.0237 65.9579C49.3607 66.8738 49.6291 67.8273 49.8288 68.8185C49.8475 68.8875 49.86 68.9628 49.8787 69.0318C50.0535 69.7533 50.1908 70.4747 50.2844 71.2087C50.3905 72.0117 50.4467 72.8272 50.4529 73.6365C50.4529 73.9062 50.4529 74.176 50.4529 74.452C50.3967 76.8924 49.9411 79.3327 49.136 81.6476C46.2901 90.0038 37.8148 97.4252 30.6126 102.199C30.4129 102.331 30.2069 102.456 30.0072 102.582C29.9885 103.316 29.976 104.056 29.9573 104.784C37.2219 101.17 43.9809 96.5908 49.6229 90.606C53.2864 86.6726 56.7751 82.3251 58.248 76.9928C61.0627 67.5199 55.6268 57.2316 47.8317 51.9682V51.987Z" fill="#EFEFF0"/>
<path d="M27.2731 50.6328H27.2606C26.9985 50.5764 26.7426 50.5199 26.4805 50.4697C26.493 50.934 26.4992 51.3919 26.5117 51.8499C26.5429 53.4308 26.5803 54.9866 26.6115 56.4985C26.6427 58.0103 26.6802 59.4783 26.7176 60.8961C26.7426 61.8434 26.7676 62.7656 26.7925 63.6564C27.0234 73.2108 27.4041 90.2054 27.685 103.16C27.6912 103.455 27.6975 103.743 27.7037 104.032C27.7162 104.653 27.7287 105.268 27.7412 105.87C27.7412 106.152 27.7536 106.435 27.7599 106.704C27.8098 109.132 27.8597 111.353 27.8972 113.266C27.9034 113.561 28.1406 113.8 28.4339 113.806C28.4589 113.806 28.4776 113.806 28.4963 113.806C28.5151 113.806 28.5275 113.806 28.5463 113.806C28.565 113.806 28.5837 113.793 28.6024 113.787C28.6149 113.787 28.6336 113.781 28.6461 113.774C28.6648 113.768 28.6836 113.756 28.696 113.749C28.7085 113.743 28.7273 113.737 28.7397 113.724C28.7585 113.712 28.7709 113.699 28.7834 113.687C28.7959 113.674 28.8084 113.668 28.8209 113.655C28.8333 113.643 28.8458 113.624 28.8583 113.611C28.8708 113.599 28.877 113.586 28.8895 113.574C28.902 113.555 28.9082 113.536 28.9207 113.517C28.927 113.505 28.9332 113.492 28.9394 113.48C28.9519 113.461 28.9582 113.436 28.9644 113.411C28.9644 113.398 28.9707 113.386 28.9769 113.379C28.9831 113.342 28.9894 113.304 28.9894 113.266C29.0455 110.882 29.108 108.473 29.1641 106.039C29.1704 105.751 29.1766 105.469 29.1828 105.18C29.2016 104.484 29.2141 103.787 29.2328 103.085C29.239 102.777 29.2453 102.476 29.2515 102.169C29.6197 85.7513 29.938 68.4053 30.3374 51.3606C29.3014 51.0594 28.2717 50.8148 27.2793 50.6266H27.2668L27.2731 50.6328Z" fill="#EFEFF0"/>
<path d="M26.3444 43.5688C27.7799 43.7695 29.1716 44.0079 30.5197 44.2776C30.6882 37.402 30.8754 30.6079 31.0876 23.977C31.0939 23.7009 31.1063 23.4249 31.1126 23.1489L31.1563 21.8064C31.1563 21.8064 31.1625 21.8064 31.1688 21.8064C31.1688 21.7876 31.1688 21.775 31.1688 21.7562C31.1688 21.7562 31.1625 21.7562 31.1563 21.7562C31.1625 21.4864 31.175 21.2167 31.1812 20.9469C31.2561 18.6195 31.3373 16.3172 31.4246 14.0399C31.4309 13.927 31.4371 13.8204 31.4309 13.7137C31.4309 13.6761 31.4246 13.6447 31.4246 13.6071C31.4246 13.538 31.4184 13.4628 31.4059 13.3938C31.4059 13.3498 31.3872 13.3122 31.381 13.2683C31.3685 13.2056 31.356 13.1428 31.3435 13.0801C31.331 13.0362 31.3185 12.9923 31.3061 12.9546C31.2873 12.8982 31.2749 12.8417 31.2499 12.7852C31.2374 12.7601 31.2312 12.7351 31.2187 12.71C30.3699 13.0801 29.44 13.2871 28.4539 13.2871C27.4678 13.2871 26.5379 13.0801 25.6953 12.7162C25.5331 13.124 25.4519 13.5757 25.4831 14.0525C25.6205 16.7814 25.739 19.7801 25.8389 22.9356C25.8451 23.2053 25.8576 23.4814 25.8639 23.7574C25.8639 23.7574 25.8576 23.7574 25.8514 23.7574C25.8514 23.7762 25.8514 23.7888 25.8514 23.8076C25.8514 23.8076 25.8576 23.8076 25.8639 23.8076C25.8826 24.3596 25.9013 24.918 25.9138 25.4826C25.92 25.7649 25.9325 26.0409 25.9387 26.3232C26.101 31.8689 26.2258 37.7847 26.3382 43.575L26.3444 43.5688Z" fill="#EFEFF0"/>
</svg>
