<svg width="105" height="40" viewBox="0 0 105 40" fill="none" xmlns="http://www.w3.org/2000/svg">
<path d="M6.15362 4.40084C7.36262 4.40084 8.3427 3.41568 8.3427 2.20042C8.3427 0.985161 7.36262 0 6.15362 0C4.94462 0 3.96454 0.985161 3.96454 2.20042C3.96454 3.41568 4.94462 4.40084 6.15362 4.40084Z" fill="#28282A"/>
<path d="M10.308 6.45508H10.3036C10.3124 6.45508 10.3212 6.45508 10.3278 6.45508C10.3212 6.45508 10.3146 6.45508 10.308 6.45508Z" fill="#28282A"/>
<path d="M6.13384 40C6.13384 40 6.147 40 6.15139 40C6.14481 40 6.13604 40 6.12946 40C6.12946 40 6.13165 40 6.13384 40Z" fill="#28282A"/>
<path d="M3.37865 10.1514C3.05182 10.4071 2.74035 10.6827 2.44642 10.9782C2.74035 10.6827 3.05182 10.4093 3.37865 10.1514Z" fill="#28282A"/>
<path d="M0.00304613 39.3408C0.00743307 39.354 0.0140135 39.3628 0.0249808 39.3716C0.0249808 39.3716 0.0293677 39.3738 0.0293677 39.376C0.0381416 39.3827 0.0513024 39.3871 0.0622697 39.3871C0.0688501 39.3871 0.0754305 39.3871 0.0842044 39.3871C1.95523 38.8204 3.82407 38.1524 5.62271 37.3344C5.61832 37.1337 5.61393 36.9309 5.60955 36.7236C3.85039 37.7533 1.98155 38.6021 0.044722 39.2636C0.01182 39.2746 -0.0079212 39.3099 0.00304613 39.3452V39.3408Z" fill="#28282A"/>
<path d="M7.86433 7.85955C8.11658 7.78459 8.37102 7.72506 8.62985 7.69199C8.68249 7.68758 8.73294 7.68758 8.78558 7.68758C8.78558 7.68758 8.78778 7.68758 8.78997 7.68758C8.80094 7.68758 8.8119 7.68758 8.82068 7.68758C8.86016 7.68758 8.90184 7.68758 8.94132 7.69199C8.95887 7.69199 8.97861 7.6964 8.99616 7.6964C9.02906 7.6986 9.06196 7.70301 9.09267 7.70742C9.11241 7.70963 9.13215 7.71404 9.15409 7.71624C9.18479 7.72065 9.2155 7.72726 9.24402 7.73388C9.26376 7.73829 9.28569 7.7427 9.30543 7.74711C9.33614 7.75372 9.36466 7.76254 9.39537 7.77136C9.41511 7.77798 9.43485 7.78239 9.45459 7.789C9.4853 7.79782 9.51381 7.80884 9.54452 7.81987C9.56426 7.82648 9.58181 7.8331 9.60155 7.83971C9.63445 7.85294 9.66516 7.86617 9.69807 7.8816C9.71342 7.88822 9.72877 7.89483 9.74413 7.90145C9.79238 7.92349 9.83845 7.94775 9.88451 7.9742C9.91522 7.99184 9.94593 8.00728 9.97883 8.02271C9.9876 8.02712 9.99418 8.02933 10.003 8.03374C10.0337 8.04696 10.0644 8.05799 10.0951 8.06681C10.1258 8.07563 10.1565 8.08224 10.1894 8.08665C10.1982 8.08665 10.2048 8.08886 10.2135 8.08886C10.2442 8.09327 10.2749 8.09547 10.3057 8.09547C10.3386 8.09547 10.3715 8.09327 10.4044 8.08886C10.4109 8.08886 10.4175 8.08886 10.4241 8.08665C10.4548 8.08224 10.4855 8.07563 10.5162 8.06681C10.5206 8.06681 10.5272 8.0624 10.5316 8.0624C10.5601 8.05358 10.5886 8.04255 10.6149 8.03153C10.6193 8.03153 10.6215 8.02933 10.6259 8.02712C10.6544 8.01389 10.6829 7.99846 10.7093 7.98302C10.7158 7.97861 10.7202 7.97641 10.7268 7.972C10.7531 7.95436 10.7794 7.93672 10.8036 7.91688C10.8058 7.91468 10.808 7.91247 10.8123 7.91027C10.8343 7.89263 10.8584 7.87058 10.8782 7.85074C10.8825 7.84633 10.8869 7.84412 10.8891 7.83971C10.9111 7.81766 10.9308 7.79341 10.9505 7.76916C10.9549 7.76475 10.9593 7.75813 10.9615 7.75372C10.9988 7.70301 11.0317 7.64569 11.058 7.58615C11.0602 7.57954 11.0624 7.57513 11.0668 7.56852C11.0778 7.53985 11.0887 7.50899 11.0975 7.48032C11.0975 7.47591 11.0997 7.4693 11.1019 7.46489C11.1085 7.43623 11.115 7.40756 11.1194 7.3767C11.1194 7.37229 11.1194 7.37008 11.1194 7.36567C11.1238 7.33481 11.1238 7.30173 11.1238 7.26866C11.1238 7.26205 11.1238 7.25543 11.1238 7.24661C11.1238 7.21354 11.1194 7.18047 11.115 7.14739C11.115 7.14298 11.115 7.13858 11.1129 7.13637C11.1063 7.1055 11.0997 7.07464 11.0909 7.04377C11.0909 7.03715 11.0865 7.03274 11.0865 7.02613C11.0756 6.99306 11.0624 6.95998 11.047 6.92691C11.0449 6.9203 11.0405 6.91368 11.0361 6.90707C11.0185 6.874 10.9988 6.83872 10.9769 6.80565C10.9593 6.77919 10.9396 6.75494 10.9176 6.73068C10.9111 6.72407 10.9045 6.71745 10.8979 6.70863C10.8825 6.6932 10.8672 6.67777 10.8518 6.66454C10.8431 6.65792 10.8343 6.6491 10.8277 6.64249C10.8123 6.62926 10.7948 6.61824 10.7794 6.60501C10.7707 6.59839 10.7619 6.59398 10.7531 6.58737C10.7334 6.57414 10.7136 6.56311 10.6917 6.55209C10.6851 6.54989 10.6807 6.54548 10.6742 6.54327C10.6478 6.53004 10.6215 6.51902 10.593 6.50799C10.5864 6.50579 10.5776 6.50358 10.5711 6.50138C10.5513 6.49476 10.5294 6.48815 10.5096 6.48154C10.4987 6.47933 10.4899 6.47713 10.4789 6.47492C10.4592 6.47051 10.4395 6.46831 10.4219 6.4639C10.4109 6.4639 10.4 6.46169 10.3912 6.45949C10.3693 6.45949 10.3497 6.45728 10.3278 6.45508C10.319 6.45508 10.3102 6.45508 10.3036 6.45508C10.2686 6.45508 10.2333 6.45728 10.1982 6.4639C10.1894 6.4639 10.1828 6.4661 10.174 6.46831C10.1411 6.47492 10.1082 6.48154 10.0775 6.49036C10.0731 6.49036 10.071 6.49036 10.0666 6.49256C10.0315 6.50358 9.99857 6.51681 9.96347 6.53225C9.9547 6.53666 9.94812 6.53886 9.93935 6.54327C9.90645 6.56091 9.87354 6.57855 9.84064 6.6006C9.30324 6.94014 8.73294 7.23118 8.12316 7.36788C7.86433 7.423 7.60988 7.48914 7.35544 7.5619C7.35106 7.71844 7.34447 7.87499 7.34009 8.03153C7.51337 7.96759 7.68885 7.90806 7.86433 7.85514V7.85955Z" fill="#28282A"/>
<path d="M12.9446 18.2739C11.1876 17.0789 9.17843 16.3424 7.11876 15.8949C7.03103 15.875 6.94109 15.8574 6.85335 15.8397C6.37079 15.7405 5.88384 15.6567 5.39909 15.5862C5.30915 15.573 5.22142 15.5619 5.13148 15.5487C4.88362 15.5156 4.63576 15.4848 4.3879 15.4583C4.32867 15.4495 4.27164 15.4429 4.21023 15.4341C4.09178 15.4186 3.96895 15.4054 3.84611 15.39C3.72328 15.3767 3.60044 15.3613 3.47542 15.3459C3.35039 15.3304 3.22755 15.3128 3.10472 15.2929C2.92047 15.2621 2.7406 15.2268 2.56513 15.1805C2.21637 15.0879 1.89612 14.9534 1.6351 14.7462C1.36091 14.5036 1.22931 14.1332 1.16131 13.7782C1.10867 13.3858 1.17447 12.9977 1.31266 12.6273C1.35872 12.5038 1.41356 12.3826 1.47497 12.2635C1.53639 12.1445 1.60439 12.0276 1.67897 11.9151C1.78864 11.7454 1.91147 11.58 2.04089 11.4235C2.1045 11.3463 2.1725 11.2691 2.2383 11.1942C2.3063 11.1192 2.3743 11.0487 2.44229 10.9781C2.73622 10.6826 3.04769 10.4093 3.37452 10.1513C3.70134 9.89553 4.04352 9.6574 4.39667 9.43472C4.5875 9.31566 4.78053 9.20321 4.97794 9.09297C4.97136 8.88351 4.96478 8.67405 4.9582 8.4668C4.9231 8.48223 4.88801 8.49767 4.85291 8.5153C4.0523 8.89674 3.12885 9.40826 2.30411 10.0433C2.11327 10.1888 1.92902 10.3431 1.75135 10.5019C1.57368 10.6606 1.40478 10.8282 1.24685 11.0001C1.19421 11.0575 1.14157 11.117 1.09112 11.1743C0.990218 11.2912 0.895899 11.4124 0.805967 11.5359C0.762098 11.5977 0.718228 11.6594 0.676552 11.7233C0.593201 11.849 0.516429 11.9791 0.446238 12.1114C0.340952 12.3098 0.253213 12.5149 0.183022 12.7243C0.112831 12.936 0.0623816 13.1521 0.0338665 13.3747C0.0250926 13.4497 0.0163188 13.5247 0.0119318 13.5996C-0.0450983 15.2246 0.889319 16.3028 2.35675 16.8121C2.6419 16.9135 2.92486 16.9929 3.21001 17.059C3.35258 17.0921 3.49296 17.123 3.63554 17.1516C3.84831 17.1935 4.06107 17.231 4.27384 17.2663C4.5568 17.3126 5.15123 17.4118 5.16439 17.414C5.25432 17.4294 5.65572 17.5066 5.76978 17.5308C6.11416 17.5948 6.45853 17.6764 6.80291 17.7734C6.89064 17.7976 6.98058 17.8241 7.06831 17.8505C8.60374 18.3158 10.0865 19.0897 11.2688 20.1546C11.4377 20.3067 11.5978 20.4633 11.7536 20.6264C12.1418 21.0343 12.4862 21.4797 12.7757 21.9603C12.892 22.1522 12.9994 22.3506 13.0982 22.5557C13.1464 22.6571 13.1947 22.7607 13.2385 22.8665C13.2824 22.9724 13.3241 23.0782 13.3636 23.184C13.482 23.5059 13.5763 23.8411 13.6465 24.1894C13.6531 24.2137 13.6575 24.2401 13.6641 24.2644C13.7255 24.5179 13.7737 24.7715 13.8066 25.0295C13.8439 25.3117 13.8637 25.5983 13.8659 25.8827C13.8659 25.9775 13.8659 26.0724 13.8659 26.1694C13.8461 27.027 13.686 27.8847 13.403 28.6983C12.4028 31.6351 9.4241 34.2435 6.89284 35.9213C6.82265 35.9676 6.75026 36.0117 6.68007 36.0558C6.67349 36.3138 6.6691 36.574 6.66252 36.8297C9.21572 35.5597 11.5912 33.9502 13.5741 31.8468C14.8617 30.4644 16.0879 28.9364 16.6055 27.0623C17.5948 23.733 15.6843 20.1171 12.9446 18.2673V18.2739Z" fill="#28282A"/>
<path d="M5.71924 17.7966H5.71486C5.62273 17.7767 5.5328 17.7569 5.44067 17.7393C5.44506 17.9024 5.44725 18.0634 5.45164 18.2243C5.46261 18.7799 5.47577 19.3267 5.48674 19.8581C5.4977 20.3895 5.51087 20.9054 5.52403 21.4037C5.5328 21.7366 5.54157 22.0607 5.55035 22.3738C5.63151 25.7318 5.76531 31.7046 5.86401 36.2576C5.86621 36.3612 5.8684 36.4627 5.87059 36.5641C5.87498 36.7824 5.87937 36.9984 5.88375 37.2101C5.88375 37.3093 5.88814 37.4085 5.89033 37.5033C5.90788 38.3566 5.92543 39.1371 5.93859 39.8096C5.94078 39.9132 6.02414 39.997 6.12723 39.9992C6.136 39.9992 6.14258 39.9992 6.14916 39.9992C6.15574 39.9992 6.16013 39.9992 6.16671 39.9992C6.17329 39.9992 6.17987 39.9948 6.18645 39.9926C6.19084 39.9926 6.19742 39.9904 6.20181 39.9882C6.20839 39.986 6.21497 39.9816 6.21936 39.9794C6.22374 39.9772 6.23032 39.975 6.23471 39.9706C6.24129 39.9661 6.24568 39.9617 6.25006 39.9573C6.25445 39.9529 6.25884 39.9507 6.26322 39.9463C6.26761 39.9419 6.272 39.9353 6.27639 39.9309C6.28077 39.9265 6.28297 39.922 6.28735 39.9176C6.29174 39.911 6.29393 39.9044 6.29832 39.8978C6.30051 39.8934 6.30271 39.889 6.3049 39.8846C6.30929 39.8779 6.31148 39.8691 6.31367 39.8603C6.31367 39.8559 6.31587 39.8515 6.31806 39.8493C6.32025 39.8361 6.32245 39.8228 6.32245 39.8096C6.34219 38.9718 6.36412 38.1251 6.38387 37.2696C6.38606 37.1682 6.38825 37.069 6.39045 36.9676C6.39703 36.7228 6.40141 36.4781 6.40799 36.2312C6.41019 36.1231 6.41238 36.0173 6.41457 35.9093C6.54399 30.1392 6.65586 24.0429 6.79624 18.0523C6.43212 17.9465 6.0702 17.8605 5.72144 17.7944H5.71705L5.71924 17.7966Z" fill="#28282A"/>
<path d="M5.39229 15.3133C5.89679 15.3839 6.38593 15.4677 6.85972 15.5625C6.91895 13.146 6.98475 10.7582 7.05933 8.42765C7.06152 8.33063 7.06591 8.23362 7.0681 8.13661L7.08346 7.66477C7.08346 7.66477 7.08565 7.66477 7.08784 7.66477C7.08784 7.65816 7.08784 7.65375 7.08784 7.64714C7.08784 7.64714 7.08565 7.64714 7.08346 7.64714C7.08565 7.55233 7.09004 7.45752 7.09223 7.36271C7.11855 6.54472 7.14707 5.73555 7.17778 4.9352C7.17997 4.89551 7.18216 4.85803 7.17997 4.82055C7.17997 4.80732 7.17778 4.79629 7.17778 4.78306C7.17778 4.75881 7.17558 4.73235 7.1712 4.7081C7.1712 4.69267 7.16462 4.67944 7.16242 4.664C7.15803 4.64195 7.15365 4.61991 7.14926 4.59786C7.14487 4.58242 7.14049 4.56699 7.1361 4.55376C7.12952 4.53392 7.12513 4.51407 7.11636 4.49423C7.11197 4.48541 7.10978 4.47659 7.10539 4.46777C6.80708 4.59786 6.48025 4.67062 6.13369 4.67062C5.78712 4.67062 5.46029 4.59786 5.16417 4.46998C5.10714 4.61329 5.07863 4.77204 5.0896 4.93961C5.13785 5.89871 5.17953 6.95262 5.21462 8.06164C5.21682 8.15645 5.2212 8.25346 5.2234 8.35048C5.2234 8.35048 5.2212 8.35048 5.21901 8.35048C5.21901 8.35709 5.21901 8.3615 5.21901 8.36812C5.21901 8.36812 5.2212 8.36812 5.2234 8.36812C5.22998 8.56214 5.23656 8.75837 5.24094 8.9568C5.24314 9.05602 5.24752 9.15303 5.24972 9.25225C5.30675 11.2013 5.35062 13.2805 5.3901 15.3155L5.39229 15.3133Z" fill="#28282A"/>
<path d="M24.7671 17.7346C24.5505 17.7346 24.3713 17.6603 24.2294 17.5191C24.08 17.3705 24.0128 17.1922 24.0128 16.9842V7.13224C24.0128 6.90934 24.0875 6.73103 24.2294 6.58986C24.3788 6.44869 24.558 6.38182 24.7671 6.38182H27.4184C28.2548 6.38182 29.0166 6.52299 29.7112 6.79789C30.3983 7.0728 30.9957 7.46658 31.5036 7.97924C32.0114 8.4919 32.3998 9.08628 32.6761 9.77726C32.9524 10.4682 33.0868 11.2261 33.0868 12.0656C33.0868 12.9052 32.9524 13.6631 32.6761 14.354C32.3998 15.045 32.0114 15.6468 31.5036 16.1595C30.9957 16.6721 30.3983 17.0585 29.7112 17.3408C29.0241 17.6157 28.2623 17.7569 27.4184 17.7569H24.7671V17.7346ZM25.5289 16.3972H27.4184C28.2399 16.3972 28.9643 16.2115 29.5917 15.84C30.219 15.4685 30.7119 14.9559 31.0779 14.2946C31.4363 13.6408 31.6156 12.8904 31.6156 12.0434C31.6156 11.1964 31.4363 10.4385 31.0779 9.78469C30.7194 9.13086 30.219 8.62563 29.5917 8.25414C28.9643 7.88265 28.2399 7.70433 27.4184 7.70433H25.5289V16.3972Z" fill="#28282A"/>
<path d="M39.2183 17.9348C38.6059 17.9348 38.0607 17.8234 37.5977 17.5931C37.1272 17.3627 36.7687 17.0433 36.5073 16.6198C36.2459 16.1963 36.119 15.691 36.119 15.0966C36.119 14.4354 36.343 13.841 36.7911 13.306C37.2392 12.7711 37.8292 12.2139 38.5611 11.6343L39.7784 10.6759C40.2938 10.2672 40.6298 9.91061 40.7717 9.59856C40.9211 9.28651 40.9958 8.96702 41.0033 8.64011C41.0033 8.26862 40.8763 7.94914 40.6298 7.68166C40.3834 7.40676 40.0249 7.27302 39.5544 7.27302C39.1287 7.27302 38.7777 7.39933 38.5163 7.65194C38.2549 7.90456 38.1205 8.20175 38.1205 8.54352C38.1205 8.79614 38.1728 9.04132 38.2848 9.28651C38.3968 9.53169 38.5835 9.77687 38.8375 10.0295L45.4917 16.6346C45.6485 16.7906 45.7382 16.9318 45.7531 17.073C45.7755 17.2067 45.7008 17.3553 45.5515 17.5113C45.2378 17.8234 44.9241 17.8234 44.6179 17.5113L37.889 10.8319C37.5604 10.4901 37.3064 10.1335 37.1272 9.76202C36.948 9.39052 36.8658 8.98931 36.8658 8.57324C36.8658 8.10516 36.9853 7.68909 37.2168 7.3176C37.4483 6.94611 37.7695 6.64891 38.1802 6.43345C38.591 6.21798 39.0466 6.11397 39.5544 6.11397C40.0622 6.11397 40.5477 6.22541 40.951 6.44831C41.3543 6.6712 41.6754 6.97583 41.9069 7.36218C42.1384 7.74853 42.2579 8.18689 42.2579 8.66983C42.2579 9.04875 42.1907 9.39052 42.0638 9.70258C41.9293 10.0146 41.7277 10.3193 41.4588 10.609C41.1825 10.9062 40.8315 11.2257 40.3909 11.5749L39.2333 12.4888C38.9047 12.7488 38.6059 13.0163 38.3445 13.2912C38.0831 13.5661 37.874 13.841 37.7247 14.1308C37.5753 14.4131 37.5006 14.7177 37.5006 15.0372C37.5006 15.5796 37.65 15.9882 37.9562 16.2705C38.2549 16.5455 38.6806 16.6866 39.2258 16.6866C39.8083 16.6866 40.3236 16.5529 40.7568 16.2854C41.19 16.0179 41.6306 15.6539 42.0787 15.1858L44.2146 12.942C44.364 12.786 44.4984 12.6894 44.6254 12.6522C44.7524 12.6151 44.8942 12.6671 45.0511 12.8082C45.2079 12.9568 45.2901 13.1054 45.2901 13.2615C45.2901 13.4175 45.2229 13.5735 45.081 13.7444L42.945 15.9882C42.4372 16.5603 41.8845 17.0284 41.2945 17.3925C40.697 17.7565 40.01 17.9348 39.2333 17.9348H39.2183Z" fill="#28282A"/>
<path d="M52.7061 17.876C52.0788 17.876 51.4888 17.7795 50.9212 17.5863C50.3536 17.3931 49.8607 17.1182 49.4424 16.769C49.0242 16.4198 48.718 16.0186 48.5239 15.5579C48.4268 15.3573 48.4268 15.1642 48.5239 14.9933C48.6284 14.8149 48.8002 14.7109 49.0466 14.6589C49.2184 14.6218 49.3976 14.6441 49.5694 14.7407C49.7412 14.8372 49.8681 14.971 49.9578 15.1567C50.0773 15.4019 50.2714 15.6248 50.5328 15.8254C50.8017 16.026 51.1228 16.1969 51.5037 16.3232C51.8846 16.4495 52.2804 16.509 52.7061 16.509C53.1766 16.509 53.6098 16.4347 53.9981 16.2935C54.3939 16.1449 54.7151 15.9369 54.9541 15.662C55.2005 15.387 55.32 15.0453 55.32 14.6366C55.32 14.124 55.1184 13.6633 54.7151 13.2547C54.3118 12.846 53.6471 12.5934 52.721 12.4968C51.5112 12.378 50.5627 12.0288 49.8681 11.4344C49.1736 10.84 48.83 10.1119 48.83 9.23514C48.83 8.59618 49.0093 8.0538 49.3678 7.60801C49.7262 7.16222 50.2191 6.82045 50.839 6.59012C51.4589 6.3598 52.146 6.24092 52.9078 6.24092C53.5052 6.24092 54.0205 6.32265 54.4686 6.48611C54.9093 6.64956 55.2976 6.87989 55.6337 7.16965C55.9623 7.45941 56.2536 7.80862 56.5 8.2024C56.6344 8.41786 56.6942 8.61847 56.6643 8.80421C56.6344 8.98996 56.5448 9.13856 56.3805 9.25C56.1938 9.36888 55.9922 9.39117 55.783 9.3243C55.5665 9.25743 55.4096 9.13113 55.2976 8.94538C55.1408 8.66305 54.9541 8.42529 54.73 8.23212C54.506 8.03894 54.2446 7.88291 53.9384 7.77147C53.6397 7.66002 53.2812 7.60058 52.8704 7.60058C52.146 7.59315 51.541 7.72689 51.0556 8.00179C50.5702 8.2767 50.3237 8.7002 50.3237 9.27229C50.3237 9.56206 50.3984 9.84439 50.5478 10.1119C50.6971 10.3793 50.9735 10.6097 51.3842 10.8028C51.7875 10.996 52.37 11.1298 53.1318 11.2115C54.2894 11.3304 55.1931 11.6796 55.8428 12.2665C56.4925 12.8535 56.8137 13.6262 56.8137 14.5846C56.8137 15.1419 56.7017 15.6174 56.4701 16.026C56.2386 16.4347 55.9324 16.7764 55.5515 17.0513C55.1632 17.3262 54.73 17.5343 54.2371 17.668C53.7442 17.8017 53.2363 17.8686 52.7061 17.8686V17.876Z" fill="#28282A"/>
<path d="M24.7671 33.7446C24.5506 33.7446 24.3713 33.6703 24.2294 33.5291C24.0801 33.3805 24.0128 33.2022 24.0128 32.9942V23.1422C24.0128 22.9193 24.0875 22.741 24.2294 22.5999C24.3788 22.4587 24.558 22.3918 24.7671 22.3918H28.2623C28.927 22.3918 29.5095 22.5181 30.0099 22.7782C30.5103 23.0382 30.9061 23.3948 31.1974 23.8481C31.4812 24.3013 31.6305 24.8288 31.6305 25.4232C31.6305 25.8987 31.5036 26.3296 31.2422 26.7085C30.9808 27.0949 30.6298 27.3921 30.1817 27.615C30.824 27.771 31.3393 28.0756 31.7351 28.5289C32.1234 28.9821 32.3176 29.5839 32.3176 30.3194C32.3176 30.9881 32.1608 31.5825 31.8396 32.0952C31.526 32.6078 31.0779 33.0165 30.5177 33.3137C29.9501 33.6109 29.3004 33.7595 28.5685 33.7595H24.7671V33.7446ZM25.5289 27.0503H28.2623C28.815 27.0503 29.2705 26.9166 29.629 26.6417C29.9875 26.3668 30.1667 25.9581 30.1667 25.4009C30.1667 24.8437 29.9875 24.435 29.629 24.1675C29.2705 23.9001 28.815 23.7663 28.2623 23.7663H25.5289V27.0503ZM25.5289 32.3478H28.5685C29.0166 32.3478 29.4124 32.2735 29.756 32.1175C30.0995 31.9614 30.3684 31.7311 30.5625 31.4339C30.7567 31.1293 30.8538 30.7578 30.8538 30.312C30.8538 29.896 30.7567 29.5542 30.5625 29.2793C30.3684 29.0044 30.0995 28.8038 29.756 28.6626C29.4124 28.5214 29.0166 28.4546 28.5685 28.4546H25.5289V32.3552V32.3478Z" fill="#28282A"/>
<path d="M36.8061 33.7446C36.5895 33.7446 36.4103 33.6703 36.2684 33.5291C36.119 33.3805 36.0518 33.2022 36.0518 32.9942L36.0518 23.1422C36.0518 22.9193 36.1265 22.741 36.2684 22.5999C36.4177 22.4587 36.597 22.3918 36.8061 22.3918L43.4155 22.3918C43.6396 22.3918 43.8188 22.4587 43.9607 22.585C44.0951 22.7187 44.1624 22.8896 44.1624 23.1051C44.1624 23.3205 44.0951 23.4766 43.9607 23.6029C43.8263 23.7292 43.6471 23.7886 43.4155 23.7886H37.5678V27.3252H41.765C41.9891 27.3252 42.1683 27.3921 42.3028 27.5184C42.4372 27.6521 42.5044 27.8156 42.5044 28.0236C42.5044 28.2317 42.4372 28.3951 42.3028 28.5289C42.1683 28.6626 41.9891 28.722 41.765 28.722H37.5678V32.3627H43.4155C43.6396 32.3627 43.8188 32.4295 43.9607 32.5484C44.0951 32.6747 44.1624 32.8382 44.1624 33.0462C44.1624 33.2542 44.0951 33.4326 43.9607 33.5663C43.8263 33.7 43.6471 33.7595 43.4155 33.7595H36.8061V33.7446Z" fill="#28282A"/>
<path d="M51.3768 33.886C50.7494 33.886 50.1594 33.7894 49.5918 33.5963C49.0242 33.4031 48.5313 33.1282 48.1131 32.779C47.6949 32.4298 47.3887 32.0286 47.1945 31.5679C47.0974 31.3673 47.0974 31.1741 47.1945 31.0033C47.2991 30.8249 47.4708 30.7209 47.7173 30.6689C47.8891 30.6318 48.0683 30.6541 48.2401 30.7506C48.4118 30.8472 48.5388 30.981 48.6284 31.1667C48.7479 31.4119 48.9421 31.6348 49.2035 31.8354C49.4724 32.036 49.7935 32.2069 50.1744 32.3332C50.5552 32.4595 50.9511 32.5189 51.3768 32.5189C51.8473 32.5189 52.2804 32.4446 52.6688 32.3035C53.0646 32.1549 53.3857 31.9468 53.6247 31.6719C53.8712 31.397 53.9907 31.0553 53.9907 30.6466C53.9907 30.134 53.789 29.6733 53.3857 29.2647C52.9824 28.856 52.3178 28.6034 51.3917 28.5068C50.1818 28.388 49.2334 28.0388 48.5388 27.4444C47.8442 26.85 47.5007 26.1219 47.5007 25.2451C47.5007 24.6062 47.68 24.0638 48.0384 23.618C48.3969 23.1722 48.8898 22.8304 49.5097 22.6001C50.1296 22.3698 50.8166 22.2509 51.5784 22.2509C52.1759 22.2509 52.6912 22.3326 53.1393 22.4961C53.5799 22.6596 53.9683 22.8899 54.3043 23.1796C54.6329 23.4694 54.9242 23.8186 55.1707 24.2124C55.3051 24.4279 55.3648 24.6285 55.335 24.8142C55.3051 25 55.2155 25.1486 55.0512 25.26C54.8645 25.3789 54.6628 25.4012 54.4537 25.3343C54.2371 25.2674 54.0803 25.1411 53.9683 24.9554C53.8114 24.673 53.6247 24.4353 53.4007 24.2421C53.1766 24.0489 52.9152 23.8929 52.609 23.7815C52.3103 23.67 51.9518 23.6106 51.5411 23.6106C50.8167 23.6031 50.2117 23.7369 49.7263 24.0118C49.2408 24.2867 48.9944 24.7102 48.9944 25.2823C48.9944 25.5721 49.0691 25.8544 49.2184 26.1219C49.3678 26.3893 49.6441 26.6197 50.0549 26.8128C50.4582 27.006 51.0407 27.1397 51.8025 27.2215C52.96 27.3404 53.8637 27.6896 54.5135 28.2765C55.1632 28.8635 55.4844 29.6362 55.4844 30.5946C55.4844 31.1519 55.3723 31.6274 55.1408 32.036C54.9093 32.4446 54.6031 32.7864 54.2222 33.0613C53.8339 33.3362 53.4007 33.5443 52.9078 33.678C52.4149 33.8117 51.907 33.8786 51.3768 33.8786V33.886Z" fill="#28282A"/>
<path d="M60.0326 33.7446C59.816 33.7446 59.6367 33.6703 59.4948 33.5291C59.3455 33.3805 59.2782 33.2022 59.2782 32.9942L59.2783 23.1422C59.2783 22.9193 59.3529 22.741 59.4948 22.5999C59.6442 22.4587 59.8234 22.3918 60.0326 22.3918H62.9601C63.692 22.3918 64.3418 22.5553 64.9019 22.8748C65.4695 23.1942 65.9101 23.64 66.2238 24.2047C66.5375 24.7694 66.7018 25.4232 66.7018 26.1587C66.7018 26.8943 66.5449 27.4961 66.2238 28.0534C65.9101 28.6032 65.462 29.0415 64.9019 29.3461C64.3343 29.6582 63.692 29.8142 62.9601 29.8142H60.7943V33.0016C60.7943 33.2171 60.7271 33.3954 60.5852 33.5366C60.4433 33.6852 60.2641 33.752 60.04 33.752L60.0326 33.7446ZM60.7943 28.4026H62.9601C63.4082 28.4026 63.8041 28.306 64.1476 28.1128C64.4911 27.9196 64.76 27.6521 64.9542 27.3104C65.1484 26.9686 65.2454 26.5822 65.2454 26.1439C65.2454 25.6758 65.1484 25.2672 64.9542 24.9105C64.76 24.5539 64.4911 24.279 64.1476 24.071C63.8041 23.8629 63.4082 23.7663 62.9601 23.7663H60.7943V28.4026Z" fill="#28282A"/>
<path d="M75.1335 33.8854C74.2746 33.8854 73.4905 33.7442 72.781 33.4545C72.0715 33.1721 71.4591 32.7635 70.9438 32.2434C70.4284 31.7233 70.0326 31.1066 69.7488 30.3934C69.465 29.6801 69.3231 28.9 69.3231 28.0455C69.3231 27.1911 69.465 26.411 69.7488 25.7051C70.0326 24.9993 70.4284 24.3826 70.9438 23.8625C71.4591 23.3425 72.064 22.9412 72.781 22.6515C73.4905 22.3691 74.2746 22.2205 75.1335 22.2205C75.9923 22.2205 76.7765 22.3617 77.4785 22.6515C78.188 22.9412 78.8004 23.3425 79.3158 23.8625C79.8311 24.3826 80.2344 24.9993 80.5182 25.7051C80.8019 26.411 80.9438 27.1911 80.9438 28.0455C80.9438 28.9 80.8019 29.6801 80.5182 30.3934C80.2344 31.1066 79.8311 31.7233 79.3158 32.2434C78.8004 32.7635 78.188 33.1647 77.4785 33.4545C76.769 33.7368 75.9923 33.8854 75.1335 33.8854ZM75.1335 32.5183C75.7683 32.5183 76.3508 32.4068 76.8811 32.1765C77.4113 31.9462 77.8744 31.6341 78.2627 31.2329C78.6511 30.8317 78.9498 30.3562 79.1589 29.8138C79.368 29.2715 79.4726 28.6845 79.4726 28.053C79.4726 27.4214 79.368 26.8345 79.1589 26.2921C78.9498 25.7497 78.6511 25.2742 78.2627 24.873C77.8744 24.4718 77.4113 24.1597 76.8811 23.9368C76.3508 23.7139 75.7683 23.6025 75.1335 23.6025C74.4987 23.6025 73.9162 23.7139 73.3859 23.9368C72.8557 24.1597 72.3926 24.4718 72.0117 24.873C71.6234 25.2742 71.3247 25.7497 71.1155 26.2921C70.9064 26.8345 70.7944 27.4214 70.7944 28.053C70.7944 28.6845 70.899 29.2715 71.1155 29.8138C71.3321 30.3562 71.6308 30.8317 72.0117 31.2329C72.4001 31.6341 72.8557 31.9536 73.3859 32.1765C73.9162 32.3994 74.4987 32.5183 75.1335 32.5183Z" fill="#28282A"/>
<path d="M85.5443 33.7446C85.3427 33.7446 85.1634 33.6703 85.0141 33.5291C84.8647 33.3805 84.79 33.2022 84.79 32.9942V23.1422C84.79 22.9268 84.8647 22.7485 85.0141 22.6073C85.1634 22.4587 85.3427 22.3918 85.5443 22.3918C85.746 22.3918 85.9401 22.4661 86.082 22.6073C86.2314 22.7559 86.2986 22.9342 86.2986 23.1422V27.511L91.1381 22.6964C91.2576 22.5776 91.3621 22.5033 91.4592 22.4587C91.5563 22.4141 91.6609 22.3918 91.7654 22.3918C92.0119 22.3918 92.1837 22.4661 92.2957 22.6073C92.4002 22.7559 92.445 22.9268 92.4152 23.1274C92.3853 23.328 92.2957 23.5063 92.1388 23.6698L88.4047 27.3921L92.2061 32.541C92.3256 32.7044 92.3704 32.8827 92.3554 33.0685C92.333 33.2542 92.2658 33.4177 92.1538 33.5514C92.0343 33.6852 91.8774 33.7446 91.6833 33.7446C91.4069 33.7446 91.1978 33.6406 91.0559 33.4251L87.3516 28.4323L86.2986 29.4799V32.9868C86.2986 33.2022 86.2239 33.3805 86.082 33.5217C85.9327 33.6703 85.7534 33.7372 85.5443 33.7372V33.7446Z" fill="#28282A"/>
<path d="M96.7692 33.7446C96.5526 33.7446 96.3734 33.6703 96.2315 33.5291C96.0821 33.3805 96.0149 33.2022 96.0149 32.9942V23.1422C96.0149 22.9193 96.0896 22.741 96.2315 22.5999C96.3809 22.4587 96.5601 22.3918 96.7692 22.3918H103.379C103.603 22.3918 103.782 22.4587 103.924 22.585C104.058 22.7187 104.126 22.8896 104.126 23.1051C104.126 23.3205 104.058 23.4766 103.924 23.6029C103.789 23.7292 103.61 23.7886 103.379 23.7886H97.531V27.3252H101.728C101.952 27.3252 102.131 27.3921 102.266 27.5184C102.4 27.6521 102.468 27.8156 102.468 28.0236C102.468 28.2317 102.4 28.3951 102.266 28.5289C102.131 28.6626 101.952 28.722 101.728 28.722H97.531V32.3627H103.379C103.603 32.3627 103.782 32.4295 103.924 32.5484C104.058 32.6747 104.126 32.8382 104.126 33.0462C104.126 33.2542 104.058 33.4326 103.924 33.5663C103.789 33.7 103.61 33.7595 103.379 33.7595H96.7692V33.7446Z" fill="#28282A"/>
</svg>
