<svg width="100" height="100" viewBox="0 0 100 100" fill="none" xmlns="http://www.w3.org/2000/svg">
<circle cx="50" cy="50" r="50" fill="#E1F7F9"/>
<path d="M34.8421 41C31.0526 41 31.0526 45.5505 34.8421 45.5505L39.896 45.5505C41.2913 45.5505 42.4211 46.5618 42.4211 47.8183V69.4404C42.4211 72.8532 47.4737 72.8532 47.4737 69.4404C47.4737 66.0275 47.4737 59.2018 50 59.2018C52.5263 59.2018 52.5263 66.0275 52.5263 69.4404C52.5263 72.8532 57.5789 72.8532 57.5789 69.4404V47.8257C57.5789 46.5691 58.71 45.5505 60.1053 45.5505H65.1579C68.9474 45.5505 68.9474 41 65.1579 41H34.8421Z" stroke="#00A8B8" stroke-width="2.6" stroke-linecap="round"/>
<path d="M55 33C55 35.7614 52.7614 38 50 38C47.2386 38 45 35.7614 45 33C45 30.2386 47.2386 28 50 28C52.7614 28 55 30.2386 55 33Z" stroke="#00A8B8" stroke-width="2.6"/>
</svg>
