<svg width="100" height="100" viewBox="0 0 100 100" fill="none" xmlns="http://www.w3.org/2000/svg">
<circle cx="50" cy="50" r="50" fill="#E1F7F9"/>
<path d="M50 59V41" stroke="#00A8B8" stroke-width="2.6" stroke-linecap="square" stroke-linejoin="round"/>
<path d="M42.5 53C43.9834 53 45.4334 53.4399 46.6668 54.264C47.9001 55.0881 48.8614 56.2594 49.4291 57.6299C49.9968 59.0003 50.1453 60.5083 49.8559 61.9632C49.5665 63.418 48.8522 64.7544 47.8033 65.8033C46.7544 66.8522 45.418 67.5665 43.9632 67.8559C42.5083 68.1453 41.0003 67.9968 39.6299 67.4291C38.2594 66.8614 37.0881 65.9001 36.264 64.6668C35.4399 63.4334 35 61.9834 35 60.5" stroke="#00A8B8" stroke-width="2.6" stroke-linecap="square" stroke-linejoin="round"/>
<path d="M57.5 53C56.0166 53 54.5666 53.4399 53.3332 54.264C52.0999 55.0881 51.1386 56.2594 50.5709 57.6299C50.0032 59.0003 49.8547 60.5083 50.1441 61.9632C50.4335 63.418 51.1478 64.7544 52.1967 65.8033C53.2456 66.8522 54.582 67.5665 56.0368 67.8559C57.4917 68.1453 58.9997 67.9968 60.3701 67.4291C61.7406 66.8614 62.9119 65.9001 63.736 64.6668C64.5601 63.4334 65 61.9834 65 60.5" stroke="#00A8B8" stroke-width="2.6" stroke-linecap="square" stroke-linejoin="round"/>
<path d="M39.5007 59.75H38.0007C35.8734 59.7557 33.8128 59.0077 32.1846 57.6386C30.5563 56.2695 29.4656 54.368 29.1061 52.2712C28.7465 50.1745 29.1413 48.0182 30.2204 46.1848C31.2994 44.3515 32.9931 42.9597 35.0007 42.2562V39.5C35.0007 37.5109 35.7909 35.6032 37.1974 34.1967C38.604 32.7902 40.5116 32 42.5007 32C44.4899 32 46.3975 32.7902 47.804 34.1967C49.2106 35.6032 50.0007 37.5109 50.0007 39.5V60.5" stroke="#00A8B8" stroke-width="2.6" stroke-linecap="square" stroke-linejoin="round"/>
<path d="M60.5 59.75H62C64.1273 59.7557 66.1879 59.0077 67.8162 57.6386C69.4444 56.2695 70.5351 54.368 70.8947 52.2712C71.2542 50.1745 70.8595 48.0182 69.7804 46.1848C68.7013 44.3515 67.0077 42.9597 65 42.2562V39.5C65 37.5109 64.2098 35.6032 62.8033 34.1967C61.3968 32.7902 59.4891 32 57.5 32C55.5109 32 53.6032 32.7902 52.1967 34.1967C50.7902 35.6032 50 37.5109 50 39.5" stroke="#00A8B8" stroke-width="2.6" stroke-linecap="square" stroke-linejoin="round"/>
<path d="M42.5 41.75V43.25C42.5 44.6424 41.9469 45.9777 40.9623 46.9623C39.9777 47.9469 38.6424 48.5 37.25 48.5" stroke="#00A8B8" stroke-width="2.6" stroke-linecap="square" stroke-linejoin="round"/>
<path d="M57.5 41.75V43.25C57.5 44.6424 58.0531 45.9777 59.0377 46.9623C60.0223 47.9469 61.3576 48.5 62.75 48.5" stroke="#00A8B8" stroke-width="2.6" stroke-linecap="square" stroke-linejoin="round"/>
</svg>
