<svg width="100" height="100" viewBox="0 0 100 100" fill="none" xmlns="http://www.w3.org/2000/svg">
<circle cx="50" cy="50" r="50" fill="#E1F7F9"/>
<path d="M58 34C62.3501 34.0242 64.7059 34.2171 66.2426 35.7539C68 37.5112 68 40.3397 68 45.9965V57.9965C68 63.6534 68 66.4818 66.2426 68.2392C64.4853 69.9965 61.6569 69.9965 56 69.9965H44C38.3431 69.9965 35.5147 69.9965 33.7574 68.2392C32 66.4818 32 63.6534 32 57.9965V45.9965C32 40.3397 32 37.5112 33.7574 35.7539C35.2941 34.2171 37.6499 34.0242 42 34" stroke="#00A8B8" stroke-width="2.6" stroke-linecap="square"/>
<path d="M44 52.8L47.4286 56L56 48" stroke="#00A8B8" stroke-width="2.6" stroke-linecap="square"/>
<path d="M42 33C42 31.3431 43.3431 30 45 30H55C56.6569 30 58 31.3431 58 33V35C58 36.6569 56.6569 38 55 38H45C43.3431 38 42 36.6569 42 35V33Z" stroke="#00A8B8" stroke-width="2.6" stroke-linecap="square"/>
</svg>
