<svg width="72" height="72" viewBox="0 0 72 72" fill="none" xmlns="http://www.w3.org/2000/svg">
<rect width="72" height="72" rx="36" fill="#E1F7F9"/>
<circle cx="36" cy="41.333" r="4" stroke="#00A8B8" stroke-width="2" stroke-linecap="square"/>
<path d="M35.5 46L32.9828 48.5725C32.5507 48.9867 32.3347 49.1938 32.1517 49.2655C31.7348 49.4288 31.2723 49.2891 31.053 48.9335C30.9568 48.7774 30.9268 48.4959 30.8668 47.9329C30.8329 47.6151 30.816 47.4562 30.7646 47.323C30.6495 47.025 30.4077 46.7932 30.0969 46.6829C29.958 46.6336 29.7923 46.6174 29.4607 46.5849C28.8735 46.5274 28.5799 46.4987 28.4171 46.4064C28.0462 46.1961 27.9004 45.7527 28.0707 45.353C28.1455 45.1776 28.3616 44.9705 28.7936 44.5562L30.7646 42.6667L31.5 42" stroke="#00A8B8" stroke-width="2" stroke-linecap="square"/>
<path d="M36.5 46L39.0172 48.5725C39.4493 48.9867 39.6653 49.1938 39.8483 49.2655C40.2652 49.4288 40.7277 49.2891 40.947 48.9335C41.0432 48.7774 41.0732 48.4959 41.1332 47.9329C41.1671 47.6151 41.184 47.4562 41.2354 47.323C41.3505 47.025 41.5923 46.7932 41.9031 46.6829C42.042 46.6336 42.2077 46.6174 42.5393 46.5849C43.1265 46.5274 43.4201 46.4987 43.5829 46.4064C43.9538 46.1961 44.0996 45.7527 43.9293 45.353C43.8545 45.1776 43.6384 44.9705 43.2064 44.5562L41.2354 42.6667L40.5 42" stroke="#00A8B8" stroke-width="2" stroke-linecap="square"/>
<path d="M44.0015 44.0004C46.6314 43.9725 47.1899 43.8019 48.1631 42.8287C49.3346 41.6572 49.3346 39.7716 49.3346 36.0003V30.667C49.3346 26.8958 49.3346 25.0101 48.1631 23.8386C46.9915 22.667 45.1059 22.667 41.3346 22.667L30.668 22.667C26.8967 22.667 25.0111 22.667 23.8395 23.8386C22.668 25.0101 22.668 26.8958 22.668 30.667L22.668 36.0003C22.668 39.7716 22.668 41.6572 23.8395 42.8288C24.8641 43.8533 25.6014 43.9842 28.5015 44.0004" stroke="#00A8B8" stroke-width="2" stroke-linecap="square"/>
<path d="M32 28H40" stroke="#00A8B8" stroke-width="2" stroke-linecap="square"/>
<path d="M29.332 32.667H42.6654" stroke="#00A8B8" stroke-width="2" stroke-linecap="square"/>
</svg>
