<svg width="100" height="100" viewBox="0 0 100 100" fill="none" xmlns="http://www.w3.org/2000/svg">
<circle cx="50" cy="50" r="50" fill="#E1F7F9"/>
<path d="M54.888 47.8125C55.0906 48.0029 55.2969 48.1825 55.5072 48.351C57.1324 49.6546 58.8686 50.2144 60.5224 50.3029C63.3068 50.4521 65.7836 49.2095 66.7904 48.7045C66.9041 48.6474 66.9991 48.5998 67.0737 48.5647C68.3321 47.971 68.871 46.4695 68.2775 45.2111C67.6838 43.9526 66.1823 43.4137 64.9239 44.0074C64.7859 44.0725 64.6459 44.14 64.5038 44.2087C63.3899 44.7463 62.1514 45.3442 60.792 45.2713C60.1299 45.2359 59.4167 45.0273 58.6598 44.4203C57.8723 43.7886 56.9316 42.6376 56.0219 40.5509C55.2846 38.8597 54.1871 37.5492 52.6276 36.8056C51.1328 36.093 49.5428 36.0624 48.1259 36.2306C44.3282 36.6814 41.4426 38.8835 39.4799 40.9285C37.8639 42.6124 36.6581 44.4391 36.0669 45.3349C35.9466 45.5172 35.8516 45.6609 35.784 45.757C34.9828 46.8947 35.2555 48.4664 36.3931 49.2676C37.5307 50.0687 39.1024 49.7961 39.9036 48.6585C40.0445 48.4586 40.1994 48.2254 40.372 47.966C41.0018 47.0185 41.8646 45.7209 43.1153 44.4177C44.1005 43.391 45.2035 42.5033 46.4182 41.9198C46.1372 42.6938 45.8182 43.5734 45.4952 44.4668C44.5635 47.0442 43.5253 49.9351 43.3579 50.5137C43.2051 51.042 43.2521 51.4939 43.2875 51.7192C43.3274 51.9737 43.3947 52.1888 43.4486 52.3396C43.5563 52.6406 43.6988 52.9246 43.8241 53.1545C44.0815 53.6271 44.4338 54.1726 44.813 54.7263C45.5816 55.8485 46.6168 57.2284 47.6434 58.5626C48.5502 59.7411 49.4735 60.9137 50.2333 61.8784L50.5376 62.265C50.9454 62.7833 51.2865 63.2179 51.5374 63.5439C51.6506 63.6908 51.7275 63.793 51.777 63.8594C51.8258 64.0268 51.8879 64.2696 51.962 64.5883C52.1091 65.2217 52.2788 66.0463 52.4577 66.9516C52.5727 67.5339 52.6923 68.1544 52.8105 68.7679C53.0492 70.0057 53.2824 71.2158 53.4611 72.024C53.7615 73.3827 55.1063 74.2406 56.4649 73.9403C57.8235 73.6398 58.6815 72.295 58.3812 70.9364C58.2169 70.1933 58.0079 69.109 57.7793 67.9224C57.6576 67.2904 57.5301 66.6292 57.401 65.9751C57.2204 65.0607 57.0372 64.1673 56.8699 63.4476C56.7868 63.0896 56.7011 62.7467 56.6156 62.4528C56.5536 62.2397 56.4235 61.7988 56.2042 61.4156C56.0477 61.1424 55.746 60.7503 55.5415 60.4848L55.5301 60.4701C55.2601 60.1193 54.9027 59.664 54.4974 59.1489L54.191 58.7597L54.1903 58.7587C53.4294 57.7925 52.5248 56.6438 51.6368 55.4898C51.5392 55.3629 51.4421 55.2363 51.3456 55.1102L54.888 47.8125Z" stroke="#00A8B8" stroke-width="2.6" stroke-linecap="round"/>
<path d="M45.9757 63.0787L42.3796 58.0801L41.3458 61.052L35.0807 59.5796C33.7262 59.2612 32.3701 60.1013 32.0518 61.4557C31.7334 62.8103 32.5734 64.1665 33.928 64.4848L42.4029 66.4766C43.659 66.7717 44.935 66.0704 45.359 64.8518L45.9757 63.0787Z" stroke="#00A8B8" stroke-width="2.6" stroke-linecap="round"/>
<circle cx="60.1704" cy="31.6416" r="4.84109" stroke="#00A8B8" stroke-width="2.6"/>
</svg>
