<svg width="100" height="100" viewBox="0 0 100 100" fill="none" xmlns="http://www.w3.org/2000/svg">
<path d="M98.7795 56.567L96.5213 56.2275L96.1192 58.8667L95.0897 58.7119L95.4918 56.0727L93.1339 55.7183L92.6816 58.6874L91.6521 58.5326L92.2954 54.3099L100 55.4681L99.3567 59.6908L98.3272 59.5361L98.7795 56.567Z" fill="white"/>
<path d="M94.058 64.3318L89.6204 65.4421L90.0577 64.0864L93.2808 63.2786L91.0961 60.8665L91.5299 59.5214L94.4918 62.9867L98.9435 61.8691L98.5063 63.2249L95.2584 64.0365L97.461 66.4659L97.0272 67.8111L94.058 64.3318Z" fill="white"/>
<path d="M91.0902 74.6996C90.7397 74.5174 90.4523 74.2635 90.2279 73.9377C90.0035 73.6119 89.8873 73.2168 89.8791 72.7524C89.8776 72.2914 90.0256 71.7784 90.3231 71.2133L90.9769 69.9716L88.1792 68.5179L88.7708 67.3944L95.6657 70.977L94.4204 73.3422C94.1436 73.8679 93.8175 74.2632 93.442 74.5284C93.0697 74.8035 92.6815 74.949 92.2772 74.9649C91.8695 74.9873 91.4738 74.8989 91.0902 74.6996ZM91.2457 71.6927C91.0209 72.1198 90.949 72.4883 91.0301 72.7981C91.1178 73.1115 91.3402 73.361 91.6974 73.5465C92.4513 73.9383 93.0515 73.7104 93.4977 72.8628L94.1516 71.6211L91.8995 70.451L91.2457 71.6927Z" fill="white"/>
<path d="M90.0846 78.3771L88.2474 77.029L86.651 79.1761L85.8135 78.5615L87.4099 76.4145L85.4917 75.007L83.6957 77.4224L82.8582 76.8079L85.4125 73.3726L91.6804 77.9717L89.1261 81.407L88.2886 80.7925L90.0846 78.3771Z" fill="white"/>
<path d="M79.0231 80.8188L82.4907 81.7467L83.1794 81.0626L80.9786 78.8763L81.8811 77.9797L87.3832 83.4455L85.4832 85.3329C85.061 85.7523 84.6308 86.0328 84.1928 86.1744C83.7494 86.3212 83.3325 86.3422 82.9419 86.2373C82.5461 86.1377 82.1951 85.9359 81.889 85.6318C81.5301 85.2752 81.3084 84.8453 81.224 84.342C81.1395 83.8492 81.2609 83.3354 81.5882 82.8006L77.9465 81.8883L79.0231 80.8188ZM83.8998 81.7782L82.9023 82.7691C82.5646 83.1047 82.3957 83.4402 82.3957 83.7758C82.3904 84.1166 82.5303 84.4285 82.8153 84.7116C83.1003 84.9947 83.4064 85.1311 83.7336 85.1206C84.0661 85.1153 84.4039 84.9423 84.7469 84.6015L85.7444 83.6106L83.8998 81.7782Z" fill="white"/>
<path d="M76.7181 92.3965L76.1087 91.5578L77.7881 90.3536L73.8433 84.9248L74.8782 84.1827L78.823 89.6115L80.5115 88.4007L81.1209 89.2393L76.7181 92.3965Z" fill="white"/>
<path d="M73.5759 94.0861L69.8175 87.3179L70.9351 86.7055L74.6935 93.4737L73.5759 94.0861Z" fill="white"/>
<path d="M65.6692 89.1275C66.1541 88.9343 66.6239 88.843 67.0785 88.8536C67.5359 88.871 67.938 88.9904 68.2847 89.2118C68.6314 89.4331 68.8881 89.7503 69.0549 90.1632L67.7871 90.6683C67.6344 90.3696 67.4103 90.1633 67.115 90.0493C66.8127 89.9381 66.4642 89.9611 66.0693 90.1185C65.6606 90.2813 65.3808 90.5046 65.23 90.7884C65.082 91.0791 65.0705 91.3792 65.1955 91.6889C65.2928 91.9298 65.4447 92.0969 65.6513 92.1903C65.851 92.2865 66.0749 92.3331 66.323 92.3301C66.5642 92.3299 66.8912 92.3035 67.3042 92.2507C67.8253 92.1869 68.2598 92.1576 68.6077 92.1628C68.9514 92.1776 69.2814 92.2778 69.5976 92.4634C69.9138 92.649 70.1622 92.9654 70.3428 93.4127C70.5095 93.8256 70.5515 94.2283 70.4687 94.6208C70.3859 95.0133 70.1908 95.3666 69.8834 95.6808C69.576 95.995 69.1764 96.2501 68.6845 96.4461C67.9849 96.7249 67.3425 96.7771 66.7574 96.6028C66.1682 96.4381 65.7271 96.0627 65.4341 95.4764L66.7434 94.9547C66.8697 95.208 67.0847 95.3819 67.3884 95.4766C67.692 95.5714 68.0309 95.5442 68.4049 95.3951C68.7444 95.2599 68.9868 95.0635 69.132 94.8058C69.2773 94.5482 69.2847 94.2577 69.1541 93.9343C69.0652 93.7141 68.9257 93.5579 68.7357 93.4659C68.5416 93.3834 68.324 93.3423 68.0828 93.3425C67.8416 93.3428 67.5215 93.3665 67.1224 93.4137C66.5916 93.4734 66.1508 93.4972 65.8002 93.4851C65.4426 93.4758 65.1043 93.375 64.7853 93.1825C64.4622 92.9997 64.2089 92.6812 64.0256 92.227C63.8783 91.8622 63.8398 91.4781 63.9101 91.0747C63.9735 90.6739 64.1554 90.2979 64.4558 89.9465C64.7521 89.6048 65.1566 89.3317 65.6692 89.1275Z" fill="white"/>
<path d="M61.9242 97.4388L61.4025 95.2299L58.7866 95.8395L58.5487 94.8325L61.1647 94.2229L60.6201 91.9165L57.6771 92.6024L57.4392 91.5954L61.6248 90.6199L63.4046 98.1562L59.219 99.1316L58.9812 98.1246L61.9242 97.4388Z" fill="white"/>
<path d="M49.6144 92.092C50.1369 92.096 50.6064 92.1886 51.023 92.3697C51.4395 92.5583 51.7659 92.8203 52.0021 93.1558C52.2384 93.4913 52.3548 93.8814 52.3513 94.3263L50.9855 94.3158C50.9582 93.982 50.8297 93.7066 50.6 93.4898C50.3628 93.273 50.0315 93.1629 49.6061 93.1597C49.1657 93.1563 48.8216 93.2575 48.5737 93.4632C48.3257 93.6763 48.2004 93.9497 48.1978 94.2833C48.1958 94.5428 48.2725 94.7547 48.428 94.9191C48.576 95.0833 48.7654 95.2108 48.9961 95.3016C49.2193 95.3923 49.532 95.4911 49.9342 95.5979C50.4407 95.7353 50.8539 95.8719 51.1738 96.0079C51.4862 96.1511 51.7532 96.3682 51.9749 96.6591C52.1966 96.95 52.3055 97.3364 52.3018 97.8183C52.2983 98.2632 52.1833 98.6516 51.9568 98.9835C51.7303 99.3154 51.4149 99.5688 51.0104 99.7437C50.606 99.9185 50.1388 100.004 49.6089 99.9999C48.8551 99.9941 48.2408 99.8003 47.7661 99.4185C47.2838 99.0441 47.0191 98.5304 46.9719 97.8775L48.3825 97.8884C48.4027 98.1703 48.5352 98.4123 48.78 98.6143C49.0247 98.8164 49.3486 98.919 49.7517 98.9221C50.1174 98.9249 50.4166 98.8345 50.6495 98.6509C50.8823 98.4673 51 98.2013 51.0027 97.8528C51.0046 97.6156 50.9352 97.4185 50.7946 97.2618C50.6465 97.1123 50.4608 96.9923 50.2376 96.9016C50.0144 96.8109 49.7091 96.7122 49.3218 96.6054C48.8079 96.4605 48.391 96.3165 48.0712 96.1731C47.7439 96.0297 47.4694 95.8089 47.2478 95.5106C47.0187 95.2197 46.906 94.8295 46.9098 94.3402C46.9129 93.9472 47.024 93.5773 47.2431 93.2305C47.4548 92.8836 47.7668 92.6043 48.1789 92.3924C48.5836 92.1879 49.0621 92.0877 49.6144 92.092Z" fill="white"/>
<path d="M42.8805 99.4066L43.8673 91.7393L45.1333 91.9001L44.1465 99.5674L42.8805 99.4066Z" fill="white"/>
<path d="M35.9436 89.9422L37.178 90.2645L39.4148 96.817L40.892 91.2344L42.1264 91.5567L40.1454 99.0432L38.911 98.7209L36.6713 92.1792L35.197 97.7511L33.9626 97.4287L35.9436 89.9422Z" fill="white"/>
<path d="M33.243 93.1193C32.9103 93.7995 32.454 94.3336 31.8743 94.7215C31.2878 95.1062 30.6493 95.3173 29.9588 95.355C29.2582 95.396 28.5823 95.2594 27.9311 94.9451C27.1859 94.5855 26.6143 94.0829 26.2164 93.4374C25.8084 92.7954 25.6366 92.0777 25.701 91.2845L27.0806 91.9503C27.0825 92.4046 27.2005 92.7996 27.4347 93.1352C27.6689 93.4708 27.9974 93.7406 28.4204 93.9448C28.8836 94.1683 29.3471 94.2642 29.8107 94.2325C30.2743 94.2007 30.7048 94.0416 31.1021 93.7553C31.4927 93.4657 31.8136 93.0641 32.0648 92.5506C32.3159 92.0371 32.4354 91.5383 32.4232 91.0543C32.4042 90.567 32.2657 90.1292 32.0075 89.7408C31.7461 89.3591 31.3838 89.0565 30.9206 88.8329C30.4976 88.6287 30.081 88.5389 29.6707 88.5635C29.2604 88.588 28.8749 88.7399 28.5142 89.0193L27.1346 88.3534C27.7226 87.8128 28.3967 87.5035 29.1569 87.4252C29.9104 87.3438 30.6597 87.4829 31.4049 87.8425C32.0629 88.1601 32.5903 88.6001 32.9874 89.1627C33.3811 89.7319 33.607 90.3644 33.665 91.0602C33.7164 91.7526 33.5757 92.439 33.243 93.1193Z" fill="white"/>
<path d="M21.8968 90.1257L23.2336 88.2861L21.0549 86.7238L21.6643 85.8851L23.843 87.4474L25.2388 85.5266L22.7877 83.769L23.3972 82.9304L26.8831 85.43L22.3223 91.7065L18.8364 89.2068L19.4458 88.3681L21.8968 90.1257Z" fill="white"/>
<path d="M14.6298 84.3461L13.7742 85.1307L12.1947 83.4308L18.192 77.9314L19.0653 78.8712L13.9236 83.5861L14.6298 84.3461Z" fill="white"/>
<path d="M14.2169 76.5798C14.4789 76.3055 14.6182 76.0128 14.6348 75.7018C14.6514 75.3907 14.5393 75.0655 14.2983 74.7262C13.9929 74.296 13.5984 74.1006 13.1149 74.14C12.6313 74.1793 11.9779 74.4875 11.1544 75.0644C11.4651 75.0645 11.773 75.1573 12.0781 75.3427C12.3729 75.5263 12.63 75.7726 12.8494 76.0817C13.129 76.4755 13.3036 76.8885 13.373 77.3208C13.4363 77.7573 13.3761 78.1806 13.1922 78.5907C12.998 78.9989 12.6722 79.3633 12.2147 79.6838C11.5438 80.1539 10.8724 80.334 10.2006 80.224C9.51844 80.1122 8.93428 79.7139 8.44816 79.0292C7.86309 78.2052 7.72547 77.426 8.03531 76.6918C8.33475 75.9557 9.05477 75.1881 10.1954 74.389C10.9822 73.8377 11.673 73.4535 12.2678 73.2364C12.8583 73.0132 13.3957 72.9724 13.8798 73.1141C14.364 73.2557 14.8083 73.6113 15.2127 74.1809C15.673 74.8292 15.8571 75.4487 15.7651 76.0395C15.673 76.6302 15.3828 77.1284 14.8945 77.5341L14.2169 76.5798ZM11.842 76.5153C11.5839 76.1517 11.2689 75.946 10.8969 75.8981C10.5146 75.8484 10.1343 75.9561 9.75615 76.221C9.33529 76.5159 9.08855 76.8566 9.01595 77.2432C8.93294 77.628 9.02695 78.0113 9.29797 78.393C9.569 78.7747 9.90608 78.9922 10.3092 79.0455C10.702 79.0969 11.0935 78.9859 11.4839 78.7124C11.856 78.4517 12.0887 78.1299 12.1821 77.7469C12.2651 77.3621 12.1518 76.9515 11.842 76.5153Z" fill="white"/>
<path d="M10.3709 70.5136C10.6739 70.285 10.8589 70.0184 10.9258 69.7141C10.9928 69.4098 10.9349 69.0709 10.7522 68.6974C10.5206 68.2239 10.163 67.9678 9.67944 67.9292C9.19584 67.8906 8.50088 68.09 7.59456 68.5274C7.9011 68.5773 8.18991 68.7182 8.46099 68.9501C8.72209 69.1785 8.93582 69.4628 9.10217 69.8029C9.31419 70.2364 9.41936 70.672 9.41768 71.1097C9.40929 71.5507 9.28111 71.9588 9.03312 72.334C8.77516 72.7058 8.39442 73.0132 7.89091 73.2562C7.15242 73.6127 6.46061 73.6828 5.81548 73.4666C5.16037 73.2469 4.64852 72.7603 4.27994 72.0067C3.83633 71.0997 3.82703 70.3087 4.25204 69.6337C4.66707 68.9553 5.5023 68.3131 6.75772 67.7072C7.62376 67.2892 8.36792 67.0207 8.99018 66.9017C9.60919 66.7761 10.1461 66.8219 10.601 67.0393C11.0558 67.2567 11.4365 67.6788 11.7431 68.3057C12.0922 69.0193 12.1733 69.6602 11.9865 70.2285C11.7997 70.7968 11.4324 71.2419 10.8846 71.564L10.3709 70.5136ZM8.03757 70.0694C7.84186 69.6693 7.56436 69.4158 7.20505 69.3089C6.83578 69.1986 6.44302 69.2439 6.02678 69.4448C5.56355 69.6684 5.26472 69.9652 5.1303 70.335C4.98589 70.7015 5.01644 71.0948 5.22194 71.515C5.42743 71.9351 5.72479 72.2038 6.11402 72.3209C6.49327 72.4346 6.89773 72.3878 7.32739 72.1804C7.73692 71.9828 8.01887 71.7024 8.17324 71.3394C8.31764 70.9729 8.27242 70.5496 8.03757 70.0694Z" fill="white"/>
<path d="M5.68293 64.7656C5.53397 65.615 5.0591 66.1588 4.25832 66.3972C3.87223 66.5122 3.48939 66.5216 3.10979 66.4256C2.7302 66.3296 2.38961 66.1176 2.08802 65.7894C1.77927 65.4633 1.54134 65.0232 1.37422 64.4692C1.20924 63.9223 1.16542 63.4284 1.24277 62.9874C1.31082 62.5414 1.4768 62.1747 1.74069 61.8871C2.00458 61.5996 2.32957 61.3983 2.71566 61.2834C3.11606 61.1642 3.50104 61.1618 3.87062 61.2763C4.2309 61.3857 4.54362 61.5829 4.80876 61.8678C4.83678 61.4183 4.98703 61.0252 5.25952 60.6887C5.52486 60.3542 5.88632 60.1189 6.34391 59.9827C6.80865 59.8443 7.25512 59.8392 7.68331 59.9671C8.11151 60.0951 8.48533 60.3399 8.80479 60.7014C9.12425 61.063 9.36432 61.5102 9.52502 62.0429C9.68571 62.5756 9.73274 63.0802 9.66611 63.5567C9.59733 64.0261 9.41955 64.4312 9.13276 64.772C8.84598 65.1128 8.47021 65.3524 8.00548 65.4907C7.54074 65.6291 7.10499 65.6311 6.69825 65.4967C6.2915 65.3624 5.95306 65.1187 5.68293 64.7656ZM3.21612 62.4C2.81573 62.5191 2.54578 62.735 2.40628 63.0474C2.26678 63.3598 2.26237 63.7327 2.39307 64.1659C2.52162 64.5921 2.73064 64.8975 3.02013 65.0823C3.30961 65.267 3.65812 65.2987 4.06566 65.1774C4.42316 65.071 4.67773 64.8559 4.82939 64.5321C4.97176 64.2033 4.98188 63.8365 4.85976 63.4316C4.73763 63.0268 4.52253 62.727 4.21446 62.5324C3.90639 62.3377 3.57361 62.2935 3.21612 62.4ZM5.78208 63.1571C5.92349 63.6258 6.15717 63.9743 6.4831 64.2023C6.79974 64.4254 7.17613 64.4721 7.61227 64.3422C8.0198 64.2209 8.30942 63.9799 8.48111 63.6192C8.64565 63.2606 8.654 62.8362 8.50617 62.3462C8.36047 61.8632 8.11715 61.5215 7.77619 61.3211C7.4331 61.1137 7.06135 61.0695 6.66096 61.1887C6.23197 61.3164 5.94343 61.561 5.79533 61.9224C5.64509 62.2768 5.64067 62.6883 5.78208 63.1571Z" fill="white"/>
<path d="M5.39616 53.1312C5.4148 53.3974 5.3686 53.6459 5.25756 53.8766C5.13855 54.1003 4.97574 54.2862 4.76913 54.4343C4.55455 54.5755 4.31324 54.6553 4.04518 54.6738C3.63565 54.7021 3.27958 54.5855 2.97695 54.324C2.67432 54.0625 2.50903 53.732 2.48106 53.3326C2.45206 52.9184 2.56919 52.5609 2.83246 52.2603C3.09573 51.9597 3.43213 51.7952 3.84165 51.7669C4.25118 51.7386 4.60726 51.8553 4.90989 52.1168C5.20507 52.3788 5.36716 52.7169 5.39616 53.1312Z" fill="white"/>
<path d="M1.21622 43.6281L3.47577 43.959L3.86762 41.3182L4.89771 41.4691L4.50586 44.1098L6.8651 44.4553L7.30593 41.4845L8.33602 41.6353L7.70906 45.8605L0 44.7316L0.626954 40.5065L1.65704 40.6573L1.21622 43.6281Z" fill="white"/>
<path d="M5.88207 35.9206L10.3154 34.7937L9.88332 36.151L6.66327 36.9709L8.85714 39.3748L8.42844 40.7215L5.45337 37.2674L1.00599 38.4016L1.43807 37.0442L4.68284 36.2205L2.471 33.7993L2.8997 32.4525L5.88207 35.9206Z" fill="white"/>
<path d="M8.88647 25.3878C9.23701 25.57 9.52446 25.8239 9.74882 26.1497C9.97319 26.4755 10.0894 26.8706 10.0976 27.335C10.0991 27.796 9.95114 28.3091 9.65363 28.8741L8.99981 30.1159L11.7975 31.5695L11.2059 32.693L4.31096 29.1104L5.55635 26.7452C5.8331 26.2196 6.15921 25.8242 6.53466 25.5591C6.90696 25.2839 7.29524 25.1384 7.69949 25.1225C8.10721 25.1001 8.50287 25.1885 8.88647 25.3878ZM8.731 28.3947C8.95586 27.9676 9.02774 27.5992 8.94664 27.2893C8.85893 26.9759 8.63649 26.7265 8.27935 26.5409C7.52537 26.1491 6.92525 26.377 6.47898 27.2246L5.82516 28.4663L8.07717 29.6365L8.731 28.3947Z" fill="white"/>
<path d="M9.79147 21.8265L11.6336 23.1678L13.2221 21.015L14.0619 21.6265L12.4733 23.7793L14.3967 25.1799L16.1838 22.7579L17.0236 23.3694L14.4819 26.814L8.19713 22.2376L10.7388 18.7931L11.5786 19.4046L9.79147 21.8265Z" fill="white"/>
<path d="M20.7574 19.4167L17.2865 18.5012L16.6002 19.1879L18.8091 21.3662L17.9098 22.266L12.3878 16.8202L14.2809 14.9259C14.7016 14.5049 15.1307 14.2229 15.5682 14.0797C16.011 13.9313 16.4279 13.9089 16.8188 14.0123C17.215 14.1105 17.5667 14.3111 17.8739 14.6141C18.2341 14.9693 18.4574 15.3984 18.5437 15.9014C18.6299 16.3939 18.5104 16.9082 18.1851 17.4441L21.8301 18.3432L20.7574 19.4167ZM15.8772 18.4748L16.8711 17.4803C17.2076 17.1436 17.3753 16.8074 17.3741 16.4719C17.3781 16.1311 17.2371 15.8196 16.9511 15.5375C16.665 15.2554 16.3584 15.1202 16.0312 15.1319C15.6987 15.1383 15.3616 15.3126 15.0198 15.6546L14.0259 16.6491L15.8772 18.4748Z" fill="white"/>
<path d="M23.2076 7.67373L23.817 8.51239L22.1376 9.71666L26.0824 15.1454L25.0475 15.8875L21.1027 10.4588L19.4142 11.6695L18.8048 10.8309L23.2076 7.67373Z" fill="white"/>
<path d="M26.3352 5.97608L30.0936 12.7443L28.976 13.3567L25.2176 6.58849L26.3352 5.97608Z" fill="white"/>
<path d="M34.0044 11.0136C33.5203 11.2086 33.0508 11.3017 32.5962 11.2928C32.1387 11.277 31.7362 11.1591 31.3886 10.9391C31.0411 10.719 30.7832 10.4028 30.6149 9.99056L31.8807 9.48073C32.0346 9.77879 32.2594 9.98428 32.5552 10.0972C32.8579 10.2073 33.2063 10.183 33.6006 10.0242C34.0087 9.85979 34.2876 9.63543 34.4374 9.3511C34.5843 9.0599 34.5947 8.75969 34.4685 8.45048C34.3703 8.20999 34.2177 8.04341 34.0108 7.95074C33.8107 7.85529 33.5867 7.80952 33.3386 7.81343C33.0974 7.81455 32.7705 7.84224 32.3577 7.89648C31.8368 7.96224 31.4025 7.99318 31.0546 7.98929C30.7108 7.97575 30.3804 7.87677 30.0635 7.69237C29.7466 7.50797 29.497 7.19245 29.3148 6.74582C29.1465 6.33354 29.103 5.93101 29.1843 5.53822C29.2656 5.14543 29.4594 4.79136 29.7656 4.47601C30.0718 4.16066 30.4705 3.90408 30.9616 3.70627C31.6602 3.42489 32.3024 3.37027 32.8881 3.5424C33.4779 3.70488 33.9204 4.07871 34.2157 4.66388L32.9083 5.19043C32.781 4.93767 32.5654 4.7645 32.2614 4.67092C31.9574 4.57733 31.6186 4.60575 31.2451 4.7562C30.9062 4.89271 30.6646 5.09004 30.5202 5.34818C30.3759 5.60633 30.3697 5.89688 30.5015 6.21983C30.5912 6.43971 30.7313 6.59534 30.9216 6.6867C31.116 6.76841 31.3338 6.8087 31.575 6.80758C31.8161 6.80645 32.1362 6.78156 32.5351 6.73289C33.0657 6.67121 33.5063 6.64575 33.8571 6.65651C34.2147 6.66448 34.5534 6.7641 34.8731 6.95538C35.1969 7.13699 35.4513 7.45456 35.6364 7.90806C35.785 8.27224 35.825 8.6562 35.7562 9.05995C35.6943 9.4609 35.5138 9.83763 35.2147 10.1901C34.9197 10.533 34.5163 10.8075 34.0044 11.0136Z" fill="white"/>
<path d="M37.8944 2.60986L38.4161 4.81875L41.0321 4.20909L41.2699 5.21609L38.6539 5.82575L39.1986 8.1321L42.1416 7.44623L42.3794 8.45322L38.1938 9.42869L36.414 1.89245L40.5996 0.916989L40.8374 1.92399L37.8944 2.60986Z" fill="white"/>
<path d="M50.1151 7.90787C49.5926 7.90586 49.1227 7.81509 48.7055 7.63553C48.2882 7.44857 47.9608 7.1878 47.7233 6.85323C47.4857 6.51866 47.3678 6.12894 47.3695 5.68406L48.7354 5.6893C48.764 6.02307 48.8935 6.29791 49.1241 6.51382C49.3621 6.72976 49.6938 6.83854 50.1192 6.84017C50.5596 6.84186 50.9034 6.73937 51.1505 6.53271C51.3976 6.31863 51.5218 6.04477 51.5231 5.71111C51.5241 5.4516 51.4466 5.23999 51.2905 5.07627C51.1418 4.91257 50.952 4.7858 50.721 4.69594C50.4974 4.6061 50.1843 4.50851 49.7816 4.40316C49.2746 4.26775 48.8609 4.1327 48.5405 3.99801C48.2275 3.85593 47.9597 3.63988 47.7369 3.34985C47.5141 3.05983 47.4036 2.67384 47.4055 2.1919C47.4072 1.74702 47.5207 1.35819 47.7459 1.02539C47.9711 0.692596 48.2856 0.437996 48.6893 0.261592C49.0931 0.0851884 49.5599 -0.00199745 50.0898 3.47158e-05C50.8437 0.00292555 51.4587 0.194358 51.935 0.574332C52.4187 0.94692 52.6854 1.45955 52.7351 2.11223L51.3244 2.10683C51.3031 1.82499 51.1697 1.5835 50.9242 1.38236C50.6786 1.18122 50.3544 1.07988 49.9513 1.07834C49.5856 1.07693 49.2867 1.16847 49.0546 1.35295C48.8225 1.53742 48.7057 1.8039 48.7044 2.15239C48.7035 2.38965 48.7736 2.58641 48.9148 2.74266C49.0635 2.89152 49.2496 3.01087 49.4732 3.10071C49.6968 3.19054 50.0024 3.2881 50.3901 3.39339C50.9046 3.53625 51.322 3.67872 51.6424 3.82083C51.9703 3.96297 52.2456 4.18276 52.4684 4.4802C52.6986 4.77025 52.8128 5.15996 52.8109 5.64932C52.8094 6.04229 52.6997 6.4126 52.4819 6.76026C52.2716 7.10794 51.9607 7.3885 51.5494 7.60195C51.1455 7.80801 50.6674 7.90999 50.1151 7.90787Z" fill="white"/>
<path d="M56.7698 0.54601L55.8126 8.21704L54.546 8.06108L55.5031 0.390054L56.7698 0.54601Z" fill="white"/>
<path d="M63.901 10.0129L62.6666 9.69054L60.4298 3.13809L58.9526 8.72072L57.7182 8.39838L59.6992 0.911862L60.9336 1.2342L63.1733 7.77589L64.6476 2.20402L65.882 2.52636L63.901 10.0129Z" fill="white"/>
<path d="M66.4729 6.75148C66.8031 6.07001 67.2573 5.53425 67.8356 5.14421C68.4206 4.75738 69.0583 4.54387 69.7488 4.50367C70.4492 4.46001 71.1256 4.59413 71.7779 4.90603C72.5245 5.26295 73.0979 5.7634 73.4983 6.40739C73.9086 7.04792 74.0831 7.76494 74.0217 8.55845L72.6396 7.89767C72.6361 7.44339 72.5166 7.04889 72.2811 6.71415C72.0457 6.37942 71.7161 6.11077 71.2924 5.90819C70.8283 5.68633 70.3646 5.59213 69.901 5.62561C69.4375 5.65909 69.0076 5.81974 68.6114 6.10757C68.2219 6.39861 67.9025 6.80135 67.6533 7.3158C67.404 7.83024 67.2864 8.32945 67.3005 8.81342C67.3212 9.3006 67.4614 9.73791 67.721 10.1253C67.9838 10.5061 68.3473 10.8074 68.8114 11.0293C69.2351 11.2318 69.652 11.3201 70.0622 11.2941C70.4725 11.268 70.8574 11.1147 71.217 10.834L72.5991 11.4948C72.0131 12.0375 71.3402 12.3494 70.5803 12.4304C69.8271 12.5147 69.0772 12.3783 68.3307 12.0214C67.6716 11.7063 67.1425 11.2682 66.7434 10.7071C66.3475 10.1393 66.1192 9.50765 66.0586 8.81214C66.0047 8.11984 66.1428 7.43295 66.4729 6.75148Z" fill="white"/>
<path d="M77.9313 9.74083L76.6012 11.5853L78.7857 13.1397L78.1793 13.9806L75.9949 12.4262L74.6062 14.3521L77.0637 16.1007L76.4574 16.9416L72.9623 14.4546L77.5 8.16163L80.9951 10.6486L80.3887 11.4895L77.9313 9.74083Z" fill="white"/>
<path d="M85.1989 15.4563L86.0516 14.6687L87.6374 16.3628L81.6603 21.8839L80.7835 20.9472L85.9079 16.2138L85.1989 15.4563Z" fill="white"/>
<path d="M85.6727 23.2445C85.4118 23.5197 85.2736 23.8129 85.2581 24.124C85.2426 24.4351 85.356 24.7599 85.5981 25.0983C85.9052 25.5274 86.3004 25.7214 86.7838 25.6803C87.2671 25.6392 87.9195 25.3286 88.7408 24.7487C88.4302 24.7497 88.1219 24.6581 87.8161 24.4738C87.5206 24.2913 87.2626 24.0459 87.0421 23.7377C86.761 23.3448 86.585 22.9324 86.5139 22.5004C86.449 22.0641 86.5077 21.6406 86.69 21.2299C86.8827 20.8209 87.2072 20.4554 87.6635 20.1332C88.3327 19.6607 89.0034 19.4782 89.6756 19.5858C90.3582 19.6951 90.9438 20.0912 91.4325 20.7741C92.0206 21.596 92.161 22.3747 91.8539 23.11C91.5572 23.8472 90.84 24.6174 89.7023 25.4207C88.9175 25.9748 88.2281 26.3615 87.6341 26.5808C87.0445 26.8061 86.5073 26.8489 86.0226 26.709C85.5379 26.5691 85.0923 26.2151 84.6858 25.647C84.2231 25.0004 84.0367 24.3815 84.1266 23.7904C84.2165 23.1993 84.5048 22.7001 84.9917 22.2926L85.6727 23.2445ZM88.0479 23.3004C88.3073 23.663 88.6231 23.8676 88.9952 23.9141C89.3778 23.9624 89.7576 23.8534 90.1348 23.587C90.5546 23.2906 90.8001 22.949 90.8712 22.5622C90.9528 22.1771 90.8574 21.7942 90.585 21.4134C90.3126 21.0327 89.9747 20.8164 89.5713 20.7646C89.1784 20.7146 88.7872 20.827 88.3979 21.102C88.0268 21.364 87.7952 21.6867 87.7032 22.07C87.6216 22.4551 87.7365 22.8653 88.0479 23.3004Z" fill="white"/>
<path d="M89.5594 29.3126C89.2572 29.5424 89.0732 29.8096 89.0074 30.1142C88.9417 30.4188 89.0008 30.7575 89.1849 31.1303C89.4182 31.6029 89.7768 31.8577 90.2605 31.8945C90.7442 31.9313 91.4385 31.7294 92.3431 31.2886C92.0364 31.2398 91.7471 31.1 91.4751 30.8692C91.2132 30.6417 90.9984 30.3582 90.8308 30.0187C90.6171 29.586 90.5103 29.1507 90.5104 28.713C90.5171 28.2721 90.6438 27.8635 90.8904 27.4873C91.1469 27.1146 91.5265 26.8058 92.0291 26.5609C92.7663 26.2018 93.4578 26.1291 94.1038 26.3429C94.7597 26.5601 95.2733 27.0449 95.6447 27.7971C96.0917 28.7025 96.104 29.4934 95.6815 30.17C95.269 30.85 94.4362 31.4952 93.183 32.1058C92.3186 32.527 91.5754 32.7982 90.9536 32.9195C90.3351 33.0474 89.798 33.0035 89.3423 32.7878C88.8867 32.5721 88.5044 32.1514 88.1954 31.5256C87.8437 30.8133 87.7602 30.1727 87.9449 29.6037C88.1295 29.0348 88.4951 28.5883 89.0417 28.2641L89.5594 29.3126ZM91.8944 29.7482C92.0916 30.1476 92.37 30.4001 92.7297 30.5057C93.0994 30.6146 93.492 30.5678 93.9075 30.3654C94.3699 30.1401 94.6676 29.8423 94.8006 29.4719C94.9437 29.1049 94.9116 28.7117 94.7046 28.2923C94.4975 27.8729 94.1992 27.6054 93.8095 27.4897C93.4298 27.3774 93.0255 27.4257 92.5967 27.6346C92.1879 27.8338 91.907 28.1152 91.754 28.4788C91.6109 28.8458 91.6577 29.2689 91.8944 29.7482Z" fill="white"/>
<path d="M94.2642 35.0091C94.4099 34.1592 94.8827 33.6136 95.6826 33.3722C96.0682 33.2558 96.451 33.2449 96.831 33.3394C97.2109 33.434 97.5523 33.6448 97.8552 33.9719C98.1651 34.2968 98.4048 34.7359 98.574 35.2893C98.741 35.8356 98.7867 36.3293 98.7111 36.7706C98.6447 37.2169 98.4801 37.5843 98.2173 37.8728C97.9545 38.1613 97.6303 38.3638 97.2447 38.4802C96.8447 38.6009 96.4598 38.6047 96.0898 38.4916C95.729 38.3835 95.4156 38.1875 95.1494 37.9036C95.1231 38.3533 94.9743 38.7469 94.7031 39.0844C94.439 39.4199 94.0785 39.6565 93.6214 39.7945C93.1572 39.9346 92.7107 39.9414 92.2821 39.8151C91.8534 39.6887 91.4786 39.4454 91.1578 39.085C90.837 38.7246 90.5952 38.2784 90.4325 37.7463C90.2698 37.2142 90.2208 36.7098 90.2856 36.233C90.3526 35.7633 90.5289 35.3576 90.8143 35.0157C91.0998 34.6738 91.4747 34.4328 91.9389 34.2927C92.4031 34.1526 92.8388 34.149 93.2461 34.2818C93.6533 34.4146 93.9927 34.6571 94.2642 35.0091ZM96.74 37.3655C97.1399 37.2448 97.409 37.028 97.5473 36.715C97.6856 36.402 97.6886 36.0292 97.5563 35.5964C97.4261 35.1707 97.2159 34.8661 96.9257 34.6824C96.6356 34.4988 96.2869 34.4684 95.8799 34.5912C95.5228 34.699 95.269 34.9151 95.1186 35.2394C94.9775 35.5687 94.9688 35.9356 95.0924 36.34C95.2161 36.7444 95.4323 37.0433 95.7411 37.2368C96.0499 37.4304 96.3829 37.4732 96.74 37.3655ZM94.1711 36.618C94.0279 36.1498 93.793 35.8022 93.4662 35.5754C93.1487 35.3535 92.7721 35.3083 92.3365 35.4397C91.9294 35.5626 91.6407 35.8047 91.4704 36.1661C91.3072 36.5253 91.3005 36.9496 91.4502 37.4392C91.5977 37.9216 91.8423 38.2623 92.184 38.4614C92.5279 38.6676 92.8998 38.7104 93.2998 38.5897C93.7283 38.4604 94.0159 38.2147 94.1626 37.8527C94.3115 37.4978 94.3143 37.0862 94.1711 36.618Z" fill="white"/>
<path d="M94.6248 46.8601C94.6062 46.5939 94.6524 46.3454 94.7635 46.1147C94.8825 45.891 95.0453 45.7051 95.2519 45.557C95.4665 45.4158 95.7078 45.336 95.9758 45.3175C96.3854 45.2892 96.7414 45.4058 97.0441 45.6673C97.3467 45.9288 97.512 46.2593 97.5399 46.6587C97.569 47.0729 97.4518 47.4304 97.1885 47.731C96.9253 48.0316 96.5889 48.1961 96.1794 48.2244C95.7698 48.2527 95.4138 48.1361 95.1111 47.8745C94.8159 47.6125 94.6539 47.2744 94.6248 46.8601Z" fill="white"/>
</svg>
